<?xml version="1.0" encoding="utf-8" standalone="no"?>
<!DOCTYPE svg PUBLIC "-//W3C//DTD SVG 1.1//EN"
  "http://www.w3.org/Graphics/SVG/1.1/DTD/svg11.dtd">
<!-- Created with matplotlib (http://matplotlib.org/) -->
<svg height="288pt" version="1.1" viewBox="0 0 432 288" width="432pt" xmlns="http://www.w3.org/2000/svg" xmlns:xlink="http://www.w3.org/1999/xlink">
 <defs>
  <style type="text/css">
*{stroke-linecap:butt;stroke-linejoin:round;}
  </style>
 </defs>
 <g id="figure_1">
  <g id="patch_1">
   <path d="
M0 288
L432 288
L432 0
L0 0
z
" style="fill:#ffffff;"/>
  </g>
  <g id="axes_1">
   <g id="patch_2">
    <path d="
M54 252
L388.8 252
L388.8 28.8
L54 28.8
z
" style="fill:#ffffff;"/>
   </g>
   <g id="patch_3">
    <path clip-path="url(#p124b8dd147)" d="
M318.517 252
L318.517 251.256
L318.94 251.256
L318.94 252
L319.363 252
L319.363 251.256
L319.787 251.256
L319.787 251.256
L320.21 251.256
L320.21 249.768
L320.633 249.768
L320.633 249.768
L321.057 249.768
L321.057 250.512
L321.48 250.512
L321.48 249.024
L321.903 249.024
L321.903 249.768
L322.327 249.768
L322.327 249.024
L322.75 249.024
L322.75 246.048
L323.174 246.048
L323.174 244.56
L323.597 244.56
L323.597 243.816
L324.02 243.816
L324.02 243.816
L324.444 243.816
L324.444 242.328
L324.867 242.328
L324.867 243.816
L325.29 243.816
L325.29 240.096
L325.714 240.096
L325.714 235.632
L326.137 235.632
L326.137 231.912
L326.56 231.912
L326.56 231.168
L326.984 231.168
L326.984 225.96
L327.407 225.96
L327.407 221.496
L327.831 221.496
L327.831 221.496
L328.254 221.496
L328.254 212.568
L328.677 212.568
L328.677 190.248
L329.101 190.248
L329.101 196.2
L329.524 196.2
L329.524 200.664
L329.947 200.664
L329.947 178.344
L330.371 178.344
L330.371 155.28
L330.794 155.28
L330.794 160.488
L331.217 160.488
L331.217 145.608
L331.641 145.608
L331.641 136.68
L332.064 136.68
L332.064 139.656
L332.488 139.656
L332.488 121.056
L332.911 121.056
L332.911 106.92
L333.334 106.92
L333.334 82.368
L333.758 82.368
L333.758 93.528
L334.181 93.528
L334.181 64.512
L334.604 64.512
L334.604 63.768
L335.028 63.768
L335.028 62.28
L335.451 62.28
L335.451 55.584
L335.874 55.584
L335.874 57.816
L336.298 57.816
L336.298 37.728
L336.721 37.728
L336.721 48.888
L337.145 48.888
L337.145 26.568
L337.568 26.568
L337.568 26.568
L337.991 26.568
L337.991 11.688
L338.415 11.688
L338.415 31.776
L338.838 31.776
L338.838 39.216
L339.261 39.216
L339.261 19.872
L339.685 19.872
L339.685 26.568
L340.108 26.568
L340.108 28.8
L340.531 28.8
L340.531 44.424
L340.955 44.424
L340.955 40.704
L341.378 40.704
L341.378 60.048
L341.802 60.048
L341.802 66
L342.225 66
L342.225 97.992
L342.648 97.992
L342.648 87.576
L343.072 87.576
L343.072 113.616
L343.495 113.616
L343.495 101.712
L343.918 101.712
L343.918 107.664
L344.342 107.664
L344.342 125.52
L344.765 125.52
L344.765 140.4
L345.189 140.4
L345.189 132.96
L345.612 132.96
L345.612 164.952
L346.035 164.952
L346.035 174.624
L346.459 174.624
L346.459 170.16
L346.882 170.16
L346.882 180.576
L347.305 180.576
L347.305 196.944
L347.729 196.944
L347.729 199.92
L348.152 199.92
L348.152 207.36
L348.575 207.36
L348.575 214.8
L348.999 214.8
L348.999 219.264
L349.422 219.264
L349.422 220.008
L349.846 220.008
L349.846 227.448
L350.269 227.448
L350.269 229.68
L350.692 229.68
L350.692 230.424
L351.116 230.424
L351.116 234.888
L351.539 234.888
L351.539 238.608
L351.962 238.608
L351.962 242.328
L352.386 242.328
L352.386 246.048
L352.809 246.048
L352.809 240.84
L353.232 240.84
L353.232 247.536
L353.656 247.536
L353.656 247.536
L354.079 247.536
L354.079 248.28
L354.503 248.28
L354.503 247.536
L354.926 247.536
L354.926 250.512
L355.349 250.512
L355.349 247.536
L355.773 247.536
L355.773 249.768
L356.196 249.768
L356.196 252
L356.619 252
L356.619 251.256
L357.043 251.256
L357.043 251.256
L357.466 251.256
L357.466 250.512
L357.889 250.512
L357.889 252
L358.313 252
L358.313 251.256
L358.736 251.256
L358.736 252
L359.16 252
L359.16 252
L359.583 252
L359.583 252
L360.006 252
L360.006 251.256
L360.43 251.256
L360.43 251.256
L360.853 251.256
L360.853 252
L360.43 252
L360.43 252
L360.006 252
L360.006 252
L359.583 252
L359.583 252
L359.16 252
L359.16 252
L358.736 252
L358.736 252
L358.313 252
L358.313 252
L357.889 252
L357.889 252
L357.466 252
L357.466 252
L357.043 252
L357.043 252
L356.619 252
L356.619 252
L356.196 252
L356.196 252
L355.773 252
L355.773 252
L355.349 252
L355.349 252
L354.926 252
L354.926 252
L354.503 252
L354.503 252
L354.079 252
L354.079 252
L353.656 252
L353.656 252
L353.232 252
L353.232 252
L352.809 252
L352.809 252
L352.386 252
L352.386 252
L351.962 252
L351.962 252
L351.539 252
L351.539 252
L351.116 252
L351.116 252
L350.692 252
L350.692 252
L350.269 252
L350.269 252
L349.846 252
L349.846 252
L349.422 252
L349.422 252
L348.999 252
L348.999 252
L348.575 252
L348.575 252
L348.152 252
L348.152 252
L347.729 252
L347.729 252
L347.305 252
L347.305 252
L346.882 252
L346.882 252
L346.459 252
L346.459 252
L346.035 252
L346.035 252
L345.612 252
L345.612 252
L345.189 252
L345.189 252
L344.765 252
L344.765 252
L344.342 252
L344.342 252
L343.918 252
L343.918 252
L343.495 252
L343.495 252
L343.072 252
L343.072 252
L342.648 252
L342.648 252
L342.225 252
L342.225 252
L341.802 252
L341.802 252
L341.378 252
L341.378 252
L340.955 252
L340.955 252
L340.531 252
L340.531 252
L340.108 252
L340.108 252
L339.685 252
L339.685 252
L339.261 252
L339.261 252
L338.838 252
L338.838 252
L338.415 252
L338.415 252
L337.991 252
L337.991 252
L337.568 252
L337.568 252
L337.145 252
L337.145 252
L336.721 252
L336.721 252
L336.298 252
L336.298 252
L335.874 252
L335.874 252
L335.451 252
L335.451 252
L335.028 252
L335.028 252
L334.604 252
L334.604 252
L334.181 252
L334.181 252
L333.758 252
L333.758 252
L333.334 252
L333.334 252
L332.911 252
L332.911 252
L332.488 252
L332.488 252
L332.064 252
L332.064 252
L331.641 252
L331.641 252
L331.217 252
L331.217 252
L330.794 252
L330.794 252
L330.371 252
L330.371 252
L329.947 252
L329.947 252
L329.524 252
L329.524 252
L329.101 252
L329.101 252
L328.677 252
L328.677 252
L328.254 252
L328.254 252
L327.831 252
L327.831 252
L327.407 252
L327.407 252
L326.984 252
L326.984 252
L326.56 252
L326.56 252
L326.137 252
L326.137 252
L325.714 252
L325.714 252
L325.29 252
L325.29 252
L324.867 252
L324.867 252
L324.444 252
L324.444 252
L324.02 252
L324.02 252
L323.597 252
L323.597 252
L323.174 252
L323.174 252
L322.75 252
L322.75 252
L322.327 252
L322.327 252
L321.903 252
L321.903 252
L321.48 252
L321.48 252
L321.057 252
L321.057 252
L320.633 252
L320.633 252
L320.21 252
L320.21 252
L319.787 252
L319.787 252
L319.363 252
L319.363 252
L318.94 252
L318.94 252
z
" style="fill:#8b0000;stroke:#000000;stroke-linejoin:miter;"/>
   </g>
   <g id="patch_4">
    <path clip-path="url(#p124b8dd147)" d="
M68.2692 252
L68.2692 251.256
L68.8394 251.256
L68.8394 252
L69.4095 252
L69.4095 252
L69.9797 252
L69.9797 251.256
L70.5499 251.256
L70.5499 251.256
L71.12 251.256
L71.12 250.512
L71.6902 250.512
L71.6902 252
L72.2603 252
L72.2603 249.024
L72.8305 249.024
L72.8305 250.512
L73.4006 250.512
L73.4006 250.512
L73.9708 250.512
L73.9708 250.512
L74.5409 250.512
L74.5409 247.536
L75.1111 247.536
L75.1111 249.024
L75.6812 249.024
L75.6812 245.304
L76.2514 245.304
L76.2514 251.256
L76.8215 251.256
L76.8215 245.304
L77.3917 245.304
L77.3917 244.56
L77.9618 244.56
L77.9618 243.816
L78.532 243.816
L78.532 236.376
L79.1021 236.376
L79.1021 234.888
L79.6723 234.888
L79.6723 237.12
L80.2425 237.12
L80.2425 231.912
L80.8126 231.912
L80.8126 226.704
L81.3828 226.704
L81.3828 222.984
L81.9529 222.984
L81.9529 218.52
L82.5231 218.52
L82.5231 224.472
L83.0932 224.472
L83.0932 222.24
L83.6634 222.24
L83.6634 206.616
L84.2335 206.616
L84.2335 202.152
L84.8037 202.152
L84.8037 198.432
L85.3738 198.432
L85.3738 195.456
L85.944 195.456
L85.944 192.48
L86.5141 192.48
L86.5141 173.88
L87.0843 173.88
L87.0843 164.208
L87.6544 164.208
L87.6544 163.464
L88.2246 163.464
L88.2246 170.904
L88.7948 170.904
L88.7948 135.936
L89.3649 135.936
L89.3649 140.4
L89.9351 140.4
L89.9351 128.496
L90.5052 128.496
L90.5052 120.312
L91.0754 120.312
L91.0754 115.104
L91.6455 115.104
L91.6455 110.64
L92.2157 110.64
L92.2157 108.408
L92.7858 108.408
L92.7858 74.928
L93.356 74.928
L93.356 77.16
L93.9261 77.16
L93.9261 74.184
L94.4963 74.184
L94.4963 71.208
L95.0664 71.208
L95.0664 66.744
L95.6366 66.744
L95.6366 46.656
L96.2067 46.656
L96.2067 53.352
L96.7769 53.352
L96.7769 43.68
L97.3471 43.68
L97.3471 34.752
L97.9172 34.752
L97.9172 48.888
L98.4874 48.888
L98.4874 30.288
L99.0575 30.288
L99.0575 48.144
L99.6277 48.144
L99.6277 48.144
L100.198 48.144
L100.198 63.024
L100.768 63.024
L100.768 63.768
L101.338 63.768
L101.338 58.56
L101.908 58.56
L101.908 71.208
L102.478 71.208
L102.478 64.512
L103.049 64.512
L103.049 93.528
L103.619 93.528
L103.619 94.272
L104.189 94.272
L104.189 108.408
L104.759 108.408
L104.759 84.6
L105.329 84.6
L105.329 112.872
L105.899 112.872
L105.899 121.8
L106.47 121.8
L106.47 133.704
L107.04 133.704
L107.04 133.704
L107.61 133.704
L107.61 138.168
L108.18 138.168
L108.18 148.584
L108.75 148.584
L108.75 161.976
L109.32 161.976
L109.32 171.648
L109.89 171.648
L109.89 176.112
L110.461 176.112
L110.461 176.856
L111.031 176.856
L111.031 185.784
L111.601 185.784
L111.601 189.504
L112.171 189.504
L112.171 207.36
L112.741 207.36
L112.741 207.36
L113.311 207.36
L113.311 211.08
L113.881 211.08
L113.881 224.472
L114.452 224.472
L114.452 220.008
L115.022 220.008
L115.022 228.192
L115.592 228.192
L115.592 224.472
L116.162 224.472
L116.162 224.472
L116.732 224.472
L116.732 234.888
L117.302 234.888
L117.302 238.608
L117.873 238.608
L117.873 237.864
L118.443 237.864
L118.443 242.328
L119.013 242.328
L119.013 243.072
L119.583 243.072
L119.583 241.584
L120.153 241.584
L120.153 247.536
L120.723 247.536
L120.723 249.768
L121.293 249.768
L121.293 249.024
L121.864 249.024
L121.864 245.304
L122.434 245.304
L122.434 246.792
L123.004 246.792
L123.004 247.536
L123.574 247.536
L123.574 246.792
L124.144 246.792
L124.144 249.768
L124.714 249.768
L124.714 251.256
L125.285 251.256
L125.285 252
L124.714 252
L124.714 252
L124.144 252
L124.144 252
L123.574 252
L123.574 252
L123.004 252
L123.004 252
L122.434 252
L122.434 252
L121.864 252
L121.864 252
L121.293 252
L121.293 252
L120.723 252
L120.723 252
L120.153 252
L120.153 252
L119.583 252
L119.583 252
L119.013 252
L119.013 252
L118.443 252
L118.443 252
L117.873 252
L117.873 252
L117.302 252
L117.302 252
L116.732 252
L116.732 252
L116.162 252
L116.162 252
L115.592 252
L115.592 252
L115.022 252
L115.022 252
L114.452 252
L114.452 252
L113.881 252
L113.881 252
L113.311 252
L113.311 252
L112.741 252
L112.741 252
L112.171 252
L112.171 252
L111.601 252
L111.601 252
L111.031 252
L111.031 252
L110.461 252
L110.461 252
L109.89 252
L109.89 252
L109.32 252
L109.32 252
L108.75 252
L108.75 252
L108.18 252
L108.18 252
L107.61 252
L107.61 252
L107.04 252
L107.04 252
L106.47 252
L106.47 252
L105.899 252
L105.899 252
L105.329 252
L105.329 252
L104.759 252
L104.759 252
L104.189 252
L104.189 252
L103.619 252
L103.619 252
L103.049 252
L103.049 252
L102.478 252
L102.478 252
L101.908 252
L101.908 252
L101.338 252
L101.338 252
L100.768 252
L100.768 252
L100.198 252
L100.198 252
L99.6277 252
L99.6277 252
L99.0575 252
L99.0575 252
L98.4874 252
L98.4874 252
L97.9172 252
L97.9172 252
L97.3471 252
L97.3471 252
L96.7769 252
L96.7769 252
L96.2067 252
L96.2067 252
L95.6366 252
L95.6366 252
L95.0664 252
L95.0664 252
L94.4963 252
L94.4963 252
L93.9261 252
L93.9261 252
L93.356 252
L93.356 252
L92.7858 252
L92.7858 252
L92.2157 252
L92.2157 252
L91.6455 252
L91.6455 252
L91.0754 252
L91.0754 252
L90.5052 252
L90.5052 252
L89.9351 252
L89.9351 252
L89.3649 252
L89.3649 252
L88.7948 252
L88.7948 252
L88.2246 252
L88.2246 252
L87.6544 252
L87.6544 252
L87.0843 252
L87.0843 252
L86.5141 252
L86.5141 252
L85.944 252
L85.944 252
L85.3738 252
L85.3738 252
L84.8037 252
L84.8037 252
L84.2335 252
L84.2335 252
L83.6634 252
L83.6634 252
L83.0932 252
L83.0932 252
L82.5231 252
L82.5231 252
L81.9529 252
L81.9529 252
L81.3828 252
L81.3828 252
L80.8126 252
L80.8126 252
L80.2425 252
L80.2425 252
L79.6723 252
L79.6723 252
L79.1021 252
L79.1021 252
L78.532 252
L78.532 252
L77.9618 252
L77.9618 252
L77.3917 252
L77.3917 252
L76.8215 252
L76.8215 252
L76.2514 252
L76.2514 252
L75.6812 252
L75.6812 252
L75.1111 252
L75.1111 252
L74.5409 252
L74.5409 252
L73.9708 252
L73.9708 252
L73.4006 252
L73.4006 252
L72.8305 252
L72.8305 252
L72.2603 252
L72.2603 252
L71.6902 252
L71.6902 252
L71.12 252
L71.12 252
L70.5499 252
L70.5499 252
L69.9797 252
L69.9797 252
L69.4095 252
L69.4095 252
L68.8394 252
L68.8394 252
z
" style="fill:#00008b;stroke:#000000;stroke-linejoin:miter;"/>
   </g>
   <g id="patch_5">
    <path d="
M54 28.8
L388.8 28.8" style="fill:none;stroke:#000000;stroke-linecap:square;stroke-linejoin:miter;"/>
   </g>
   <g id="patch_6">
    <path d="
M388.8 252
L388.8 28.8" style="fill:none;stroke:#000000;stroke-linecap:square;stroke-linejoin:miter;"/>
   </g>
   <g id="patch_7">
    <path d="
M54 252
L388.8 252" style="fill:none;stroke:#000000;stroke-linecap:square;stroke-linejoin:miter;"/>
   </g>
   <g id="patch_8">
    <path d="
M54 252
L54 28.8" style="fill:none;stroke:#000000;stroke-linecap:square;stroke-linejoin:miter;"/>
   </g>
   <g id="matplotlib.axis_1">
    <g id="xtick_1">
     <g id="line2d_1">
      <defs>
       <path d="
M0 0
L0 -4" id="m93b0483c22" style="stroke:#000000;stroke-width:0.5;"/>
      </defs>
      <g>
       <use style="stroke:#000000;stroke-width:0.5;" x="54.0" xlink:href="#m93b0483c22" y="252.0"/>
      </g>
     </g>
     <g id="line2d_2">
      <defs>
       <path d="
M0 0
L0 4" id="m741efc42ff" style="stroke:#000000;stroke-width:0.5;"/>
      </defs>
      <g>
       <use style="stroke:#000000;stroke-width:0.5;" x="54.0" xlink:href="#m741efc42ff" y="28.8"/>
      </g>
     </g>
     <g id="text_1">
      <!-- 770 -->
      <defs>
       <path d="
M31.7812 66.4062
Q24.1719 66.4062 20.3281 58.9062
Q16.5 51.4219 16.5 36.375
Q16.5 21.3906 20.3281 13.8906
Q24.1719 6.39062 31.7812 6.39062
Q39.4531 6.39062 43.2812 13.8906
Q47.125 21.3906 47.125 36.375
Q47.125 51.4219 43.2812 58.9062
Q39.4531 66.4062 31.7812 66.4062
M31.7812 74.2188
Q44.0469 74.2188 50.5156 64.5156
Q56.9844 54.8281 56.9844 36.375
Q56.9844 17.9688 50.5156 8.26562
Q44.0469 -1.42188 31.7812 -1.42188
Q19.5312 -1.42188 13.0625 8.26562
Q6.59375 17.9688 6.59375 36.375
Q6.59375 54.8281 13.0625 64.5156
Q19.5312 74.2188 31.7812 74.2188" id="BitstreamVeraSans-Roman-30"/>
       <path d="
M8.20312 72.9062
L55.0781 72.9062
L55.0781 68.7031
L28.6094 0
L18.3125 0
L43.2188 64.5938
L8.20312 64.5938
z
" id="BitstreamVeraSans-Roman-37"/>
      </defs>
      <g transform="translate(45.1984375 263.5984375)scale(0.1 -0.1)">
       <use xlink:href="#BitstreamVeraSans-Roman-37"/>
       <use x="63.623046875" xlink:href="#BitstreamVeraSans-Roman-37"/>
       <use x="127.24609375" xlink:href="#BitstreamVeraSans-Roman-30"/>
      </g>
     </g>
    </g>
    <g id="xtick_2">
     <g id="line2d_3">
      <g>
       <use style="stroke:#000000;stroke-width:0.5;" x="109.8" xlink:href="#m93b0483c22" y="252.0"/>
      </g>
     </g>
     <g id="line2d_4">
      <g>
       <use style="stroke:#000000;stroke-width:0.5;" x="109.8" xlink:href="#m741efc42ff" y="28.8"/>
      </g>
     </g>
     <g id="text_2">
      <!-- 780 -->
      <defs>
       <path d="
M31.7812 34.625
Q24.75 34.625 20.7188 30.8594
Q16.7031 27.0938 16.7031 20.5156
Q16.7031 13.9219 20.7188 10.1562
Q24.75 6.39062 31.7812 6.39062
Q38.8125 6.39062 42.8594 10.1719
Q46.9219 13.9688 46.9219 20.5156
Q46.9219 27.0938 42.8906 30.8594
Q38.875 34.625 31.7812 34.625
M21.9219 38.8125
Q15.5781 40.375 12.0312 44.7188
Q8.5 49.0781 8.5 55.3281
Q8.5 64.0625 14.7188 69.1406
Q20.9531 74.2188 31.7812 74.2188
Q42.6719 74.2188 48.875 69.1406
Q55.0781 64.0625 55.0781 55.3281
Q55.0781 49.0781 51.5312 44.7188
Q48 40.375 41.7031 38.8125
Q48.8281 37.1562 52.7969 32.3125
Q56.7812 27.4844 56.7812 20.5156
Q56.7812 9.90625 50.3125 4.23438
Q43.8438 -1.42188 31.7812 -1.42188
Q19.7344 -1.42188 13.25 4.23438
Q6.78125 9.90625 6.78125 20.5156
Q6.78125 27.4844 10.7812 32.3125
Q14.7969 37.1562 21.9219 38.8125
M18.3125 54.3906
Q18.3125 48.7344 21.8438 45.5625
Q25.3906 42.3906 31.7812 42.3906
Q38.1406 42.3906 41.7188 45.5625
Q45.3125 48.7344 45.3125 54.3906
Q45.3125 60.0625 41.7188 63.2344
Q38.1406 66.4062 31.7812 66.4062
Q25.3906 66.4062 21.8438 63.2344
Q18.3125 60.0625 18.3125 54.3906" id="BitstreamVeraSans-Roman-38"/>
      </defs>
      <g transform="translate(100.9984375 263.5984375)scale(0.1 -0.1)">
       <use xlink:href="#BitstreamVeraSans-Roman-37"/>
       <use x="63.623046875" xlink:href="#BitstreamVeraSans-Roman-38"/>
       <use x="127.24609375" xlink:href="#BitstreamVeraSans-Roman-30"/>
      </g>
     </g>
    </g>
    <g id="xtick_3">
     <g id="line2d_5">
      <g>
       <use style="stroke:#000000;stroke-width:0.5;" x="165.6" xlink:href="#m93b0483c22" y="252.0"/>
      </g>
     </g>
     <g id="line2d_6">
      <g>
       <use style="stroke:#000000;stroke-width:0.5;" x="165.6" xlink:href="#m741efc42ff" y="28.8"/>
      </g>
     </g>
     <g id="text_3">
      <!-- 790 -->
      <defs>
       <path d="
M10.9844 1.51562
L10.9844 10.5
Q14.7031 8.73438 18.5 7.8125
Q22.3125 6.89062 25.9844 6.89062
Q35.75 6.89062 40.8906 13.4531
Q46.0469 20.0156 46.7812 33.4062
Q43.9531 29.2031 39.5938 26.9531
Q35.25 24.7031 29.9844 24.7031
Q19.0469 24.7031 12.6719 31.3125
Q6.29688 37.9375 6.29688 49.4219
Q6.29688 60.6406 12.9375 67.4219
Q19.5781 74.2188 30.6094 74.2188
Q43.2656 74.2188 49.9219 64.5156
Q56.5938 54.8281 56.5938 36.375
Q56.5938 19.1406 48.4062 8.85938
Q40.2344 -1.42188 26.4219 -1.42188
Q22.7031 -1.42188 18.8906 -0.6875
Q15.0938 0.046875 10.9844 1.51562
M30.6094 32.4219
Q37.25 32.4219 41.125 36.9531
Q45.0156 41.5 45.0156 49.4219
Q45.0156 57.2812 41.125 61.8438
Q37.25 66.4062 30.6094 66.4062
Q23.9688 66.4062 20.0938 61.8438
Q16.2188 57.2812 16.2188 49.4219
Q16.2188 41.5 20.0938 36.9531
Q23.9688 32.4219 30.6094 32.4219" id="BitstreamVeraSans-Roman-39"/>
      </defs>
      <g transform="translate(156.7984375 263.5984375)scale(0.1 -0.1)">
       <use xlink:href="#BitstreamVeraSans-Roman-37"/>
       <use x="63.623046875" xlink:href="#BitstreamVeraSans-Roman-39"/>
       <use x="127.24609375" xlink:href="#BitstreamVeraSans-Roman-30"/>
      </g>
     </g>
    </g>
    <g id="xtick_4">
     <g id="line2d_7">
      <g>
       <use style="stroke:#000000;stroke-width:0.5;" x="221.4" xlink:href="#m93b0483c22" y="252.0"/>
      </g>
     </g>
     <g id="line2d_8">
      <g>
       <use style="stroke:#000000;stroke-width:0.5;" x="221.4" xlink:href="#m741efc42ff" y="28.8"/>
      </g>
     </g>
     <g id="text_4">
      <!-- 800 -->
      <g transform="translate(212.52734375 263.5984375)scale(0.1 -0.1)">
       <use xlink:href="#BitstreamVeraSans-Roman-38"/>
       <use x="63.623046875" xlink:href="#BitstreamVeraSans-Roman-30"/>
       <use x="127.24609375" xlink:href="#BitstreamVeraSans-Roman-30"/>
      </g>
     </g>
    </g>
    <g id="xtick_5">
     <g id="line2d_9">
      <g>
       <use style="stroke:#000000;stroke-width:0.5;" x="277.2" xlink:href="#m93b0483c22" y="252.0"/>
      </g>
     </g>
     <g id="line2d_10">
      <g>
       <use style="stroke:#000000;stroke-width:0.5;" x="277.2" xlink:href="#m741efc42ff" y="28.8"/>
      </g>
     </g>
     <g id="text_5">
      <!-- 810 -->
      <defs>
       <path d="
M12.4062 8.29688
L28.5156 8.29688
L28.5156 63.9219
L10.9844 60.4062
L10.9844 69.3906
L28.4219 72.9062
L38.2812 72.9062
L38.2812 8.29688
L54.3906 8.29688
L54.3906 0
L12.4062 0
z
" id="BitstreamVeraSans-Roman-31"/>
      </defs>
      <g transform="translate(268.32734375 263.5984375)scale(0.1 -0.1)">
       <use xlink:href="#BitstreamVeraSans-Roman-38"/>
       <use x="63.623046875" xlink:href="#BitstreamVeraSans-Roman-31"/>
       <use x="127.24609375" xlink:href="#BitstreamVeraSans-Roman-30"/>
      </g>
     </g>
    </g>
    <g id="xtick_6">
     <g id="line2d_11">
      <g>
       <use style="stroke:#000000;stroke-width:0.5;" x="333.0" xlink:href="#m93b0483c22" y="252.0"/>
      </g>
     </g>
     <g id="line2d_12">
      <g>
       <use style="stroke:#000000;stroke-width:0.5;" x="333.0" xlink:href="#m741efc42ff" y="28.8"/>
      </g>
     </g>
     <g id="text_6">
      <!-- 820 -->
      <defs>
       <path d="
M19.1875 8.29688
L53.6094 8.29688
L53.6094 0
L7.32812 0
L7.32812 8.29688
Q12.9375 14.1094 22.625 23.8906
Q32.3281 33.6875 34.8125 36.5312
Q39.5469 41.8438 41.4219 45.5312
Q43.3125 49.2188 43.3125 52.7812
Q43.3125 58.5938 39.2344 62.25
Q35.1562 65.9219 28.6094 65.9219
Q23.9688 65.9219 18.8125 64.3125
Q13.6719 62.7031 7.8125 59.4219
L7.8125 69.3906
Q13.7656 71.7812 18.9375 73
Q24.125 74.2188 28.4219 74.2188
Q39.75 74.2188 46.4844 68.5469
Q53.2188 62.8906 53.2188 53.4219
Q53.2188 48.9219 51.5312 44.8906
Q49.8594 40.875 45.4062 35.4062
Q44.1875 33.9844 37.6406 27.2188
Q31.1094 20.4531 19.1875 8.29688" id="BitstreamVeraSans-Roman-32"/>
      </defs>
      <g transform="translate(324.12734375 263.5984375)scale(0.1 -0.1)">
       <use xlink:href="#BitstreamVeraSans-Roman-38"/>
       <use x="63.623046875" xlink:href="#BitstreamVeraSans-Roman-32"/>
       <use x="127.24609375" xlink:href="#BitstreamVeraSans-Roman-30"/>
      </g>
     </g>
    </g>
    <g id="xtick_7">
     <g id="line2d_13">
      <g>
       <use style="stroke:#000000;stroke-width:0.5;" x="388.8" xlink:href="#m93b0483c22" y="252.0"/>
      </g>
     </g>
     <g id="line2d_14">
      <g>
       <use style="stroke:#000000;stroke-width:0.5;" x="388.8" xlink:href="#m741efc42ff" y="28.8"/>
      </g>
     </g>
     <g id="text_7">
      <!-- 830 -->
      <defs>
       <path d="
M40.5781 39.3125
Q47.6562 37.7969 51.625 33
Q55.6094 28.2188 55.6094 21.1875
Q55.6094 10.4062 48.1875 4.48438
Q40.7656 -1.42188 27.0938 -1.42188
Q22.5156 -1.42188 17.6562 -0.515625
Q12.7969 0.390625 7.625 2.20312
L7.625 11.7188
Q11.7188 9.32812 16.5938 8.10938
Q21.4844 6.89062 26.8125 6.89062
Q36.0781 6.89062 40.9375 10.5469
Q45.7969 14.2031 45.7969 21.1875
Q45.7969 27.6406 41.2812 31.2656
Q36.7656 34.9062 28.7188 34.9062
L20.2188 34.9062
L20.2188 43.0156
L29.1094 43.0156
Q36.375 43.0156 40.2344 45.9219
Q44.0938 48.8281 44.0938 54.2969
Q44.0938 59.9062 40.1094 62.9062
Q36.1406 65.9219 28.7188 65.9219
Q24.6562 65.9219 20.0156 65.0312
Q15.375 64.1562 9.8125 62.3125
L9.8125 71.0938
Q15.4375 72.6562 20.3438 73.4375
Q25.25 74.2188 29.5938 74.2188
Q40.8281 74.2188 47.3594 69.1094
Q53.9062 64.0156 53.9062 55.3281
Q53.9062 49.2656 50.4375 45.0938
Q46.9688 40.9219 40.5781 39.3125" id="BitstreamVeraSans-Roman-33"/>
      </defs>
      <g transform="translate(379.92734375 263.5984375)scale(0.1 -0.1)">
       <use xlink:href="#BitstreamVeraSans-Roman-38"/>
       <use x="63.623046875" xlink:href="#BitstreamVeraSans-Roman-33"/>
       <use x="127.24609375" xlink:href="#BitstreamVeraSans-Roman-30"/>
      </g>
     </g>
    </g>
    <g id="text_8">
     <!-- Age (Ma) -->
     <defs>
      <path id="BitstreamVeraSans-Roman-20"/>
      <path d="
M9.8125 72.9062
L24.5156 72.9062
L43.1094 23.2969
L61.8125 72.9062
L76.5156 72.9062
L76.5156 0
L66.8906 0
L66.8906 64.0156
L48.0938 14.0156
L38.1875 14.0156
L19.3906 64.0156
L19.3906 0
L9.8125 0
z
" id="BitstreamVeraSans-Roman-4d"/>
      <path d="
M8.01562 75.875
L15.8281 75.875
Q23.1406 64.3594 26.7812 53.3125
Q30.4219 42.2812 30.4219 31.3906
Q30.4219 20.4531 26.7812 9.375
Q23.1406 -1.70312 15.8281 -13.1875
L8.01562 -13.1875
Q14.5 -2 17.7031 9.0625
Q20.9062 20.125 20.9062 31.3906
Q20.9062 42.6719 17.7031 53.6562
Q14.5 64.6562 8.01562 75.875" id="BitstreamVeraSans-Roman-29"/>
      <path d="
M31 75.875
Q24.4688 64.6562 21.2812 53.6562
Q18.1094 42.6719 18.1094 31.3906
Q18.1094 20.125 21.3125 9.0625
Q24.5156 -2 31 -13.1875
L23.1875 -13.1875
Q15.875 -1.70312 12.2344 9.375
Q8.59375 20.4531 8.59375 31.3906
Q8.59375 42.2812 12.2031 53.3125
Q15.8281 64.3594 23.1875 75.875
z
" id="BitstreamVeraSans-Roman-28"/>
      <path d="
M34.1875 63.1875
L20.7969 26.9062
L47.6094 26.9062
z

M28.6094 72.9062
L39.7969 72.9062
L67.5781 0
L57.3281 0
L50.6875 18.7031
L17.8281 18.7031
L11.1875 0
L0.78125 0
z
" id="BitstreamVeraSans-Roman-41"/>
      <path d="
M56.2031 29.5938
L56.2031 25.2031
L14.8906 25.2031
Q15.4844 15.9219 20.4844 11.0625
Q25.4844 6.20312 34.4219 6.20312
Q39.5938 6.20312 44.4531 7.46875
Q49.3125 8.73438 54.1094 11.2812
L54.1094 2.78125
Q49.2656 0.734375 44.1875 -0.34375
Q39.1094 -1.42188 33.8906 -1.42188
Q20.7969 -1.42188 13.1562 6.1875
Q5.51562 13.8125 5.51562 26.8125
Q5.51562 40.2344 12.7656 48.1094
Q20.0156 56 32.3281 56
Q43.3594 56 49.7812 48.8906
Q56.2031 41.7969 56.2031 29.5938
M47.2188 32.2344
Q47.125 39.5938 43.0938 43.9844
Q39.0625 48.3906 32.4219 48.3906
Q24.9062 48.3906 20.3906 44.1406
Q15.875 39.8906 15.1875 32.1719
z
" id="BitstreamVeraSans-Roman-65"/>
      <path d="
M45.4062 27.9844
Q45.4062 37.75 41.375 43.1094
Q37.3594 48.4844 30.0781 48.4844
Q22.8594 48.4844 18.8281 43.1094
Q14.7969 37.75 14.7969 27.9844
Q14.7969 18.2656 18.8281 12.8906
Q22.8594 7.51562 30.0781 7.51562
Q37.3594 7.51562 41.375 12.8906
Q45.4062 18.2656 45.4062 27.9844
M54.3906 6.78125
Q54.3906 -7.17188 48.1875 -13.9844
Q42 -20.7969 29.2031 -20.7969
Q24.4688 -20.7969 20.2656 -20.0938
Q16.0625 -19.3906 12.1094 -17.9219
L12.1094 -9.1875
Q16.0625 -11.3281 19.9219 -12.3438
Q23.7812 -13.375 27.7812 -13.375
Q36.625 -13.375 41.0156 -8.76562
Q45.4062 -4.15625 45.4062 5.17188
L45.4062 9.625
Q42.625 4.78125 38.2812 2.39062
Q33.9375 0 27.875 0
Q17.8281 0 11.6719 7.65625
Q5.51562 15.3281 5.51562 27.9844
Q5.51562 40.6719 11.6719 48.3281
Q17.8281 56 27.875 56
Q33.9375 56 38.2812 53.6094
Q42.625 51.2188 45.4062 46.3906
L45.4062 54.6875
L54.3906 54.6875
z
" id="BitstreamVeraSans-Roman-67"/>
      <path d="
M34.2812 27.4844
Q23.3906 27.4844 19.1875 25
Q14.9844 22.5156 14.9844 16.5
Q14.9844 11.7188 18.1406 8.90625
Q21.2969 6.10938 26.7031 6.10938
Q34.1875 6.10938 38.7031 11.4062
Q43.2188 16.7031 43.2188 25.4844
L43.2188 27.4844
z

M52.2031 31.2031
L52.2031 0
L43.2188 0
L43.2188 8.29688
Q40.1406 3.32812 35.5469 0.953125
Q30.9531 -1.42188 24.3125 -1.42188
Q15.9219 -1.42188 10.9531 3.29688
Q6 8.01562 6 15.9219
Q6 25.1406 12.1719 29.8281
Q18.3594 34.5156 30.6094 34.5156
L43.2188 34.5156
L43.2188 35.4062
Q43.2188 41.6094 39.1406 45
Q35.0625 48.3906 27.6875 48.3906
Q23 48.3906 18.5469 47.2656
Q14.1094 46.1406 10.0156 43.8906
L10.0156 52.2031
Q14.9375 54.1094 19.5781 55.0469
Q24.2188 56 28.6094 56
Q40.4844 56 46.3438 49.8438
Q52.2031 43.7031 52.2031 31.2031" id="BitstreamVeraSans-Roman-61"/>
     </defs>
     <g transform="translate(199.28984375 278.2765625)scale(0.1 -0.1)">
      <use xlink:href="#BitstreamVeraSans-Roman-41"/>
      <use x="68.408203125" xlink:href="#BitstreamVeraSans-Roman-67"/>
      <use x="131.884765625" xlink:href="#BitstreamVeraSans-Roman-65"/>
      <use x="193.408203125" xlink:href="#BitstreamVeraSans-Roman-20"/>
      <use x="225.1953125" xlink:href="#BitstreamVeraSans-Roman-28"/>
      <use x="264.208984375" xlink:href="#BitstreamVeraSans-Roman-4d"/>
      <use x="350.48828125" xlink:href="#BitstreamVeraSans-Roman-61"/>
      <use x="411.767578125" xlink:href="#BitstreamVeraSans-Roman-29"/>
     </g>
    </g>
   </g>
   <g id="matplotlib.axis_2">
    <g id="ytick_1">
     <g id="line2d_15">
      <defs>
       <path d="
M0 0
L4 0" id="m728421d6d4" style="stroke:#000000;stroke-width:0.5;"/>
      </defs>
      <g>
       <use style="stroke:#000000;stroke-width:0.5;" x="54.0" xlink:href="#m728421d6d4" y="252.0"/>
      </g>
     </g>
     <g id="line2d_16">
      <defs>
       <path d="
M0 0
L-4 0" id="mcb0005524f" style="stroke:#000000;stroke-width:0.5;"/>
      </defs>
      <g>
       <use style="stroke:#000000;stroke-width:0.5;" x="388.8" xlink:href="#mcb0005524f" y="252.0"/>
      </g>
     </g>
     <g id="text_9">
      <!-- 0 -->
      <g transform="translate(44.9609375 254.759375)scale(0.1 -0.1)">
       <use xlink:href="#BitstreamVeraSans-Roman-30"/>
      </g>
     </g>
    </g>
    <g id="ytick_2">
     <g id="line2d_17">
      <g>
       <use style="stroke:#000000;stroke-width:0.5;" x="54.0" xlink:href="#m728421d6d4" y="214.8"/>
      </g>
     </g>
     <g id="line2d_18">
      <g>
       <use style="stroke:#000000;stroke-width:0.5;" x="388.8" xlink:href="#mcb0005524f" y="214.8"/>
      </g>
     </g>
     <g id="text_10">
      <!-- 50 -->
      <defs>
       <path d="
M10.7969 72.9062
L49.5156 72.9062
L49.5156 64.5938
L19.8281 64.5938
L19.8281 46.7344
Q21.9688 47.4688 24.1094 47.8281
Q26.2656 48.1875 28.4219 48.1875
Q40.625 48.1875 47.75 41.5
Q54.8906 34.8125 54.8906 23.3906
Q54.8906 11.625 47.5625 5.09375
Q40.2344 -1.42188 26.9062 -1.42188
Q22.3125 -1.42188 17.5469 -0.640625
Q12.7969 0.140625 7.71875 1.70312
L7.71875 11.625
Q12.1094 9.23438 16.7969 8.0625
Q21.4844 6.89062 26.7031 6.89062
Q35.1562 6.89062 40.0781 11.3281
Q45.0156 15.7656 45.0156 23.3906
Q45.0156 31 40.0781 35.4375
Q35.1562 39.8906 26.7031 39.8906
Q22.75 39.8906 18.8125 39.0156
Q14.8906 38.1406 10.7969 36.2812
z
" id="BitstreamVeraSans-Roman-35"/>
      </defs>
      <g transform="translate(38.7109375 217.559375)scale(0.1 -0.1)">
       <use xlink:href="#BitstreamVeraSans-Roman-35"/>
       <use x="63.623046875" xlink:href="#BitstreamVeraSans-Roman-30"/>
      </g>
     </g>
    </g>
    <g id="ytick_3">
     <g id="line2d_19">
      <g>
       <use style="stroke:#000000;stroke-width:0.5;" x="54.0" xlink:href="#m728421d6d4" y="177.6"/>
      </g>
     </g>
     <g id="line2d_20">
      <g>
       <use style="stroke:#000000;stroke-width:0.5;" x="388.8" xlink:href="#mcb0005524f" y="177.6"/>
      </g>
     </g>
     <g id="text_11">
      <!-- 100 -->
      <g transform="translate(32.675 180.359375)scale(0.1 -0.1)">
       <use xlink:href="#BitstreamVeraSans-Roman-31"/>
       <use x="63.623046875" xlink:href="#BitstreamVeraSans-Roman-30"/>
       <use x="127.24609375" xlink:href="#BitstreamVeraSans-Roman-30"/>
      </g>
     </g>
    </g>
    <g id="ytick_4">
     <g id="line2d_21">
      <g>
       <use style="stroke:#000000;stroke-width:0.5;" x="54.0" xlink:href="#m728421d6d4" y="140.4"/>
      </g>
     </g>
     <g id="line2d_22">
      <g>
       <use style="stroke:#000000;stroke-width:0.5;" x="388.8" xlink:href="#mcb0005524f" y="140.4"/>
      </g>
     </g>
     <g id="text_12">
      <!-- 150 -->
      <g transform="translate(32.675 143.159375)scale(0.1 -0.1)">
       <use xlink:href="#BitstreamVeraSans-Roman-31"/>
       <use x="63.623046875" xlink:href="#BitstreamVeraSans-Roman-35"/>
       <use x="127.24609375" xlink:href="#BitstreamVeraSans-Roman-30"/>
      </g>
     </g>
    </g>
    <g id="ytick_5">
     <g id="line2d_23">
      <g>
       <use style="stroke:#000000;stroke-width:0.5;" x="54.0" xlink:href="#m728421d6d4" y="103.2"/>
      </g>
     </g>
     <g id="line2d_24">
      <g>
       <use style="stroke:#000000;stroke-width:0.5;" x="388.8" xlink:href="#mcb0005524f" y="103.2"/>
      </g>
     </g>
     <g id="text_13">
      <!-- 200 -->
      <g transform="translate(32.309375 105.959375)scale(0.1 -0.1)">
       <use xlink:href="#BitstreamVeraSans-Roman-32"/>
       <use x="63.623046875" xlink:href="#BitstreamVeraSans-Roman-30"/>
       <use x="127.24609375" xlink:href="#BitstreamVeraSans-Roman-30"/>
      </g>
     </g>
    </g>
    <g id="ytick_6">
     <g id="line2d_25">
      <g>
       <use style="stroke:#000000;stroke-width:0.5;" x="54.0" xlink:href="#m728421d6d4" y="66.0"/>
      </g>
     </g>
     <g id="line2d_26">
      <g>
       <use style="stroke:#000000;stroke-width:0.5;" x="388.8" xlink:href="#mcb0005524f" y="66.0"/>
      </g>
     </g>
     <g id="text_14">
      <!-- 250 -->
      <g transform="translate(32.309375 68.759375)scale(0.1 -0.1)">
       <use xlink:href="#BitstreamVeraSans-Roman-32"/>
       <use x="63.623046875" xlink:href="#BitstreamVeraSans-Roman-35"/>
       <use x="127.24609375" xlink:href="#BitstreamVeraSans-Roman-30"/>
      </g>
     </g>
    </g>
    <g id="ytick_7">
     <g id="line2d_27">
      <g>
       <use style="stroke:#000000;stroke-width:0.5;" x="54.0" xlink:href="#m728421d6d4" y="28.8"/>
      </g>
     </g>
     <g id="line2d_28">
      <g>
       <use style="stroke:#000000;stroke-width:0.5;" x="388.8" xlink:href="#mcb0005524f" y="28.8"/>
      </g>
     </g>
     <g id="text_15">
      <!-- 300 -->
      <g transform="translate(32.3390625 31.559375)scale(0.1 -0.1)">
       <use xlink:href="#BitstreamVeraSans-Roman-33"/>
       <use x="63.623046875" xlink:href="#BitstreamVeraSans-Roman-30"/>
       <use x="127.24609375" xlink:href="#BitstreamVeraSans-Roman-30"/>
      </g>
     </g>
    </g>
    <g id="text_16">
     <!-- n -->
     <defs>
      <path d="
M54.8906 33.0156
L54.8906 0
L45.9062 0
L45.9062 32.7188
Q45.9062 40.4844 42.875 44.3281
Q39.8438 48.1875 33.7969 48.1875
Q26.5156 48.1875 22.3125 43.5469
Q18.1094 38.9219 18.1094 30.9062
L18.1094 0
L9.07812 0
L9.07812 54.6875
L18.1094 54.6875
L18.1094 46.1875
Q21.3438 51.125 25.7031 53.5625
Q30.0781 56 35.7969 56
Q45.2188 56 50.0469 50.1719
Q54.8906 44.3438 54.8906 33.0156" id="BitstreamVeraSans-Roman-6e"/>
     </defs>
     <g transform="translate(25.2296875 142.690625)rotate(-90.0)scale(0.1 -0.1)">
      <use xlink:href="#BitstreamVeraSans-Roman-6e"/>
     </g>
    </g>
   </g>
   <g id="legend_1">
    <g id="patch_9">
     <path d="
M60 246
L171.345 246
L171.345 207.173
L60 207.173
z
" style="fill:#ffffff;stroke:#000000;stroke-linejoin:miter;"/>
    </g>
    <g id="patch_10">
     <path d="
M64.8 221.091
L88.8 221.091
L88.8 212.691
L64.8 212.691
z
" style="fill:#8b0000;stroke:#000000;stroke-linejoin:miter;"/>
    </g>
    <g id="text_17">
     <!-- Pole 1 ages -->
     <defs>
      <path d="
M19.6719 64.7969
L19.6719 37.4062
L32.0781 37.4062
Q38.9688 37.4062 42.7188 40.9688
Q46.4844 44.5312 46.4844 51.125
Q46.4844 57.6719 42.7188 61.2344
Q38.9688 64.7969 32.0781 64.7969
z

M9.8125 72.9062
L32.0781 72.9062
Q44.3438 72.9062 50.6094 67.3594
Q56.8906 61.8125 56.8906 51.125
Q56.8906 40.3281 50.6094 34.8125
Q44.3438 29.2969 32.0781 29.2969
L19.6719 29.2969
L19.6719 0
L9.8125 0
z
" id="BitstreamVeraSans-Roman-50"/>
      <path d="
M30.6094 48.3906
Q23.3906 48.3906 19.1875 42.75
Q14.9844 37.1094 14.9844 27.2969
Q14.9844 17.4844 19.1562 11.8438
Q23.3438 6.20312 30.6094 6.20312
Q37.7969 6.20312 41.9844 11.8594
Q46.1875 17.5312 46.1875 27.2969
Q46.1875 37.0156 41.9844 42.7031
Q37.7969 48.3906 30.6094 48.3906
M30.6094 56
Q42.3281 56 49.0156 48.375
Q55.7188 40.7656 55.7188 27.2969
Q55.7188 13.875 49.0156 6.21875
Q42.3281 -1.42188 30.6094 -1.42188
Q18.8438 -1.42188 12.1719 6.21875
Q5.51562 13.875 5.51562 27.2969
Q5.51562 40.7656 12.1719 48.375
Q18.8438 56 30.6094 56" id="BitstreamVeraSans-Roman-6f"/>
      <path d="
M44.2812 53.0781
L44.2812 44.5781
Q40.4844 46.5312 36.375 47.5
Q32.2812 48.4844 27.875 48.4844
Q21.1875 48.4844 17.8438 46.4375
Q14.5 44.3906 14.5 40.2812
Q14.5 37.1562 16.8906 35.375
Q19.2812 33.5938 26.5156 31.9844
L29.5938 31.2969
Q39.1562 29.25 43.1875 25.5156
Q47.2188 21.7812 47.2188 15.0938
Q47.2188 7.46875 41.1875 3.01562
Q35.1562 -1.42188 24.6094 -1.42188
Q20.2188 -1.42188 15.4531 -0.5625
Q10.6875 0.296875 5.42188 2
L5.42188 11.2812
Q10.4062 8.6875 15.2344 7.39062
Q20.0625 6.10938 24.8125 6.10938
Q31.1562 6.10938 34.5625 8.28125
Q37.9844 10.4531 37.9844 14.4062
Q37.9844 18.0625 35.5156 20.0156
Q33.0625 21.9688 24.7031 23.7812
L21.5781 24.5156
Q13.2344 26.2656 9.51562 29.9062
Q5.8125 33.5469 5.8125 39.8906
Q5.8125 47.6094 11.2812 51.7969
Q16.75 56 26.8125 56
Q31.7812 56 36.1719 55.2656
Q40.5781 54.5469 44.2812 53.0781" id="BitstreamVeraSans-Roman-73"/>
      <path d="
M9.42188 75.9844
L18.4062 75.9844
L18.4062 0
L9.42188 0
z
" id="BitstreamVeraSans-Roman-6c"/>
     </defs>
     <g transform="translate(98.4 221.090625)scale(0.12 -0.12)">
      <use xlink:href="#BitstreamVeraSans-Roman-50"/>
      <use x="56.677734375" xlink:href="#BitstreamVeraSans-Roman-6f"/>
      <use x="117.859375" xlink:href="#BitstreamVeraSans-Roman-6c"/>
      <use x="145.642578125" xlink:href="#BitstreamVeraSans-Roman-65"/>
      <use x="207.166015625" xlink:href="#BitstreamVeraSans-Roman-20"/>
      <use x="238.953125" xlink:href="#BitstreamVeraSans-Roman-31"/>
      <use x="302.576171875" xlink:href="#BitstreamVeraSans-Roman-20"/>
      <use x="334.36328125" xlink:href="#BitstreamVeraSans-Roman-61"/>
      <use x="395.642578125" xlink:href="#BitstreamVeraSans-Roman-67"/>
      <use x="459.119140625" xlink:href="#BitstreamVeraSans-Roman-65"/>
      <use x="520.642578125" xlink:href="#BitstreamVeraSans-Roman-73"/>
     </g>
    </g>
    <g id="patch_11">
     <path d="
M64.8 238.704
L88.8 238.704
L88.8 230.304
L64.8 230.304
z
" style="fill:#00008b;stroke:#000000;stroke-linejoin:miter;"/>
    </g>
    <g id="text_18">
     <!-- Pole 2 ages -->
     <g transform="translate(98.4 238.704375)scale(0.12 -0.12)">
      <use xlink:href="#BitstreamVeraSans-Roman-50"/>
      <use x="56.677734375" xlink:href="#BitstreamVeraSans-Roman-6f"/>
      <use x="117.859375" xlink:href="#BitstreamVeraSans-Roman-6c"/>
      <use x="145.642578125" xlink:href="#BitstreamVeraSans-Roman-65"/>
      <use x="207.166015625" xlink:href="#BitstreamVeraSans-Roman-20"/>
      <use x="238.953125" xlink:href="#BitstreamVeraSans-Roman-32"/>
      <use x="302.576171875" xlink:href="#BitstreamVeraSans-Roman-20"/>
      <use x="334.36328125" xlink:href="#BitstreamVeraSans-Roman-61"/>
      <use x="395.642578125" xlink:href="#BitstreamVeraSans-Roman-67"/>
      <use x="459.119140625" xlink:href="#BitstreamVeraSans-Roman-65"/>
      <use x="520.642578125" xlink:href="#BitstreamVeraSans-Roman-73"/>
     </g>
    </g>
   </g>
  </g>
 </g>
 <defs>
  <clipPath id="p124b8dd147">
   <rect height="223.2" width="334.8" x="54.0" y="28.8"/>
  </clipPath>
 </defs>
</svg>
