<?xml version="1.0" encoding="utf-8" standalone="no"?>
<!DOCTYPE svg PUBLIC "-//W3C//DTD SVG 1.1//EN"
  "http://www.w3.org/Graphics/SVG/1.1/DTD/svg11.dtd">
<!-- Created with matplotlib (http://matplotlib.org/) -->
<svg height="1542pt" version="1.1" viewBox="0 0 432 1542" width="432pt" xmlns="http://www.w3.org/2000/svg" xmlns:xlink="http://www.w3.org/1999/xlink">
 <defs>
  <style type="text/css">
*{stroke-linecap:butt;stroke-linejoin:round;}
  </style>
 </defs>
 <g id="figure_1">
  <g id="patch_1">
   <path d="M 0 1542.24 
L 432 1542.24 
L 432 0 
L 0 0 
z
" style="fill:#ffffff;"/>
  </g>
  <g id="axes_1">
   <g id="patch_2">
    <path d="M 54 1349.46 
L 199.565217 1349.46 
L 199.565217 185.0688 
L 54 185.0688 
z
" style="fill:#ffffff;"/>
   </g>
   <g id="patch_3">
    <path clip-path="url(#p57345fb47d)" d="M 54 1349.46 
L 126.782609 1349.46 
L 126.782609 1341.41472 
L 54 1341.41472 
z
" style="fill:#2bb673;stroke:#000000;stroke-linejoin:miter;"/>
   </g>
   <g id="patch_4">
    <path clip-path="url(#p57345fb47d)" d="M 54 1341.41472 
L 170.452174 1341.41472 
L 170.452174 1333.26072 
L 54 1333.26072 
z
" style="fill:#ff00ff;stroke:#000000;stroke-linejoin:miter;"/>
   </g>
   <g id="patch_5">
    <path clip-path="url(#p57345fb47d)" d="M 54 1333.26072 
L 83.113043 1333.26072 
L 83.113043 1255.9608 
L 54 1255.9608 
z
" style="fill:#ffffff;stroke:#000000;stroke-linejoin:miter;"/>
   </g>
   <g id="patch_6">
    <path clip-path="url(#p57345fb47d)" d="M 54 1255.9608 
L 104.947826 1255.9608 
L 104.947826 1208.23272 
L 54 1208.23272 
z
" style="fill:#2bb673;stroke:#000000;stroke-linejoin:miter;"/>
   </g>
   <g id="patch_7">
    <path clip-path="url(#p57345fb47d)" d="M 54 1208.23272 
L 83.113043 1208.23272 
L 83.113043 1002.75192 
L 54 1002.75192 
z
" style="fill:#ffffff;stroke:#000000;stroke-linejoin:miter;"/>
   </g>
   <g id="patch_8">
    <path clip-path="url(#p57345fb47d)" d="M 54 1002.75192 
L 97.669565 1002.75192 
L 97.669565 960.56856 
L 54 960.56856 
z
" style="fill:#c886d2;stroke:#000000;stroke-linejoin:miter;"/>
   </g>
   <g id="patch_9">
    <path clip-path="url(#p57345fb47d)" d="M 54 960.56856 
L 83.113043 960.56856 
L 83.113043 920.5596 
L 54 920.5596 
z
" style="fill:#ffffff;stroke:#000000;stroke-linejoin:miter;"/>
   </g>
   <g id="patch_10">
    <path clip-path="url(#p57345fb47d)" d="M 54 920.5596 
L 97.669565 920.5596 
L 97.669565 914.0364 
L 54 914.0364 
z
" style="fill:#c886d2;stroke:#000000;stroke-linejoin:miter;"/>
   </g>
   <g id="patch_11">
    <path clip-path="url(#p57345fb47d)" d="M 54 914.0364 
L 83.113043 914.0364 
L 83.113043 889.79184 
L 54 889.79184 
z
" style="fill:#ffffff;stroke:#000000;stroke-linejoin:miter;"/>
   </g>
   <g id="patch_12">
    <path clip-path="url(#p57345fb47d)" d="M 54 889.79184 
L 104.947826 889.79184 
L 104.947826 857.17584 
L 54 857.17584 
z
" style="fill:#82aaff;stroke:#000000;stroke-linejoin:miter;"/>
   </g>
   <g id="patch_13">
    <path clip-path="url(#p57345fb47d)" d="M 54 857.17584 
L 104.947826 857.17584 
L 104.947826 850.65264 
L 54 850.65264 
z
" style="fill:#82aaff;stroke:#000000;stroke-linejoin:miter;"/>
   </g>
   <g id="patch_14">
    <path clip-path="url(#p57345fb47d)" d="M 54 850.65264 
L 83.113043 850.65264 
L 83.113043 823.2552 
L 54 823.2552 
z
" style="fill:#ffffff;stroke:#000000;stroke-linejoin:miter;"/>
   </g>
   <g id="patch_15">
    <path clip-path="url(#p57345fb47d)" d="M 54 823.2552 
L 97.669565 823.2552 
L 97.669565 815.53608 
L 54 815.53608 
z
" style="fill:#c886d2;stroke:#000000;stroke-linejoin:miter;"/>
   </g>
   <g id="patch_16">
    <path clip-path="url(#p57345fb47d)" d="M 54 815.53608 
L 104.947826 815.53608 
L 104.947826 813.90528 
L 54 813.90528 
z
" style="fill:#2bb673;stroke:#000000;stroke-linejoin:miter;"/>
   </g>
   <g id="patch_17">
    <path clip-path="url(#p57345fb47d)" d="M 54 813.90528 
L 83.113043 813.90528 
L 83.113043 787.26888 
L 54 787.26888 
z
" style="fill:#ffffff;stroke:#000000;stroke-linejoin:miter;"/>
   </g>
   <g id="patch_18">
    <path clip-path="url(#p57345fb47d)" d="M 54 787.26888 
L 104.947826 787.26888 
L 104.947826 745.5204 
L 54 745.5204 
z
" style="fill:#2bb673;stroke:#000000;stroke-linejoin:miter;"/>
   </g>
   <g id="patch_19">
    <path clip-path="url(#p57345fb47d)" d="M 54 745.5204 
L 104.947826 745.5204 
L 104.947826 686.268 
L 54 686.268 
z
" style="fill:#c886d2;stroke:#000000;stroke-linejoin:miter;"/>
   </g>
   <g id="patch_20">
    <path clip-path="url(#p57345fb47d)" d="M 54 686.268 
L 104.947826 686.268 
L 104.947826 661.04496 
L 54 661.04496 
z
" style="fill:#2bb673;stroke:#000000;stroke-linejoin:miter;"/>
   </g>
   <g id="patch_21">
    <path clip-path="url(#p57345fb47d)" d="M 54 661.04496 
L 104.947826 661.04496 
L 104.947826 562.3272 
L 54 562.3272 
z
" style="fill:#c886d2;stroke:#000000;stroke-linejoin:miter;"/>
   </g>
   <g id="patch_22">
    <path clip-path="url(#p57345fb47d)" d="M 54 562.3272 
L 97.669565 562.3272 
L 97.669565 501.9876 
L 54 501.9876 
z
" style="fill:#e73c49;stroke:#000000;stroke-linejoin:miter;"/>
   </g>
   <g id="patch_23">
    <path clip-path="url(#p57345fb47d)" d="M 54 501.9876 
L 83.113043 501.9876 
L 83.113043 487.854 
L 54 487.854 
z
" style="fill:#ffffff;stroke:#000000;stroke-linejoin:miter;"/>
   </g>
   <g id="patch_24">
    <path clip-path="url(#p57345fb47d)" d="M 54 487.854 
L 104.947826 487.854 
L 104.947826 449.04096 
L 54 449.04096 
z
" style="fill:#82aaff;stroke:#000000;stroke-linejoin:miter;"/>
   </g>
   <g id="patch_25">
    <path clip-path="url(#p57345fb47d)" d="M 54 449.04096 
L 199.565217 449.04096 
L 199.565217 448.93224 
L 54 448.93224 
z
" style="fill:#ffd3dc;stroke:#000000;stroke-linejoin:miter;"/>
   </g>
   <g id="patch_26">
    <path clip-path="url(#p57345fb47d)" d="M 54 448.93224 
L 104.947826 448.93224 
L 104.947826 437.19048 
L 54 437.19048 
z
" style="fill:#82aaff;stroke:#000000;stroke-linejoin:miter;"/>
   </g>
   <g id="patch_27">
    <path clip-path="url(#p57345fb47d)" d="M 54 437.19048 
L 83.113043 437.19048 
L 83.113043 392.94144 
L 54 392.94144 
z
" style="fill:#ffffff;stroke:#000000;stroke-linejoin:miter;"/>
   </g>
   <g id="patch_28">
    <path clip-path="url(#p57345fb47d)" d="M 54 392.94144 
L 104.947826 392.94144 
L 104.947826 345.21336 
L 54 345.21336 
z
" style="fill:#2bb673;stroke:#000000;stroke-linejoin:miter;"/>
   </g>
   <g id="patch_29">
    <path clip-path="url(#p57345fb47d)" d="M 54 345.21336 
L 83.113043 345.21336 
L 83.113043 275.41512 
L 54 275.41512 
z
" style="fill:#ffffff;stroke:#000000;stroke-linejoin:miter;"/>
   </g>
   <g id="patch_30">
    <path clip-path="url(#p57345fb47d)" d="M 54 275.41512 
L 104.947826 275.41512 
L 104.947826 263.99952 
L 54 263.99952 
z
" style="fill:#2bb673;stroke:#000000;stroke-linejoin:miter;"/>
   </g>
   <g id="patch_31">
    <path clip-path="url(#p57345fb47d)" d="M 54 263.99952 
L 83.113043 263.99952 
L 83.113043 237.68928 
L 54 237.68928 
z
" style="fill:#ffffff;stroke:#000000;stroke-linejoin:miter;"/>
   </g>
   <g id="patch_32">
    <path clip-path="url(#p57345fb47d)" d="M 54 237.68928 
L 97.669565 237.68928 
L 97.669565 234.42768 
L 54 234.42768 
z
" style="fill:#e73c49;stroke:#000000;stroke-linejoin:miter;"/>
   </g>
   <g id="patch_33">
    <path clip-path="url(#p57345fb47d)" d="M 54 234.42768 
L 83.113043 234.42768 
L 83.113043 212.03136 
L 54 212.03136 
z
" style="fill:#ffffff;stroke:#000000;stroke-linejoin:miter;"/>
   </g>
   <g id="patch_34">
    <path clip-path="url(#p57345fb47d)" d="M 54 212.03136 
L 97.669565 212.03136 
L 97.669565 185.0688 
L 54 185.0688 
z
" style="fill:#e73c49;stroke:#000000;stroke-linejoin:miter;"/>
   </g>
   <g id="matplotlib.axis_1"/>
   <g id="matplotlib.axis_2">
    <g id="ytick_1">
     <g id="line2d_1">
      <defs>
       <path d="M 0 0 
L -3.5 0 
" id="m2176683ace" style="stroke:#000000;stroke-width:0.8;"/>
      </defs>
      <g>
       <use style="stroke:#000000;stroke-width:0.8;" x="54" xlink:href="#m2176683ace" y="1349.46"/>
      </g>
     </g>
     <g id="text_1">
      <!-- 0 -->
      <defs>
       <path d="M 31.78125 66.40625 
Q 24.171875 66.40625 20.328125 58.90625 
Q 16.5 51.421875 16.5 36.375 
Q 16.5 21.390625 20.328125 13.890625 
Q 24.171875 6.390625 31.78125 6.390625 
Q 39.453125 6.390625 43.28125 13.890625 
Q 47.125 21.390625 47.125 36.375 
Q 47.125 51.421875 43.28125 58.90625 
Q 39.453125 66.40625 31.78125 66.40625 
z
M 31.78125 74.21875 
Q 44.046875 74.21875 50.515625 64.515625 
Q 56.984375 54.828125 56.984375 36.375 
Q 56.984375 17.96875 50.515625 8.265625 
Q 44.046875 -1.421875 31.78125 -1.421875 
Q 19.53125 -1.421875 13.0625 8.265625 
Q 6.59375 17.96875 6.59375 36.375 
Q 6.59375 54.828125 13.0625 64.515625 
Q 19.53125 74.21875 31.78125 74.21875 
z
" id="DejaVuSans-30"/>
      </defs>
      <g transform="translate(40.6375 1353.259219)scale(0.1 -0.1)">
       <use xlink:href="#DejaVuSans-30"/>
      </g>
     </g>
    </g>
    <g id="ytick_2">
     <g id="line2d_2">
      <g>
       <use style="stroke:#000000;stroke-width:0.8;" x="54" xlink:href="#m2176683ace" y="1132.02"/>
      </g>
     </g>
     <g id="text_2">
      <!-- 200 -->
      <defs>
       <path d="M 19.1875 8.296875 
L 53.609375 8.296875 
L 53.609375 0 
L 7.328125 0 
L 7.328125 8.296875 
Q 12.9375 14.109375 22.625 23.890625 
Q 32.328125 33.6875 34.8125 36.53125 
Q 39.546875 41.84375 41.421875 45.53125 
Q 43.3125 49.21875 43.3125 52.78125 
Q 43.3125 58.59375 39.234375 62.25 
Q 35.15625 65.921875 28.609375 65.921875 
Q 23.96875 65.921875 18.8125 64.3125 
Q 13.671875 62.703125 7.8125 59.421875 
L 7.8125 69.390625 
Q 13.765625 71.78125 18.9375 73 
Q 24.125 74.21875 28.421875 74.21875 
Q 39.75 74.21875 46.484375 68.546875 
Q 53.21875 62.890625 53.21875 53.421875 
Q 53.21875 48.921875 51.53125 44.890625 
Q 49.859375 40.875 45.40625 35.40625 
Q 44.1875 33.984375 37.640625 27.21875 
Q 31.109375 20.453125 19.1875 8.296875 
z
" id="DejaVuSans-32"/>
      </defs>
      <g transform="translate(27.9125 1135.819219)scale(0.1 -0.1)">
       <use xlink:href="#DejaVuSans-32"/>
       <use x="63.623047" xlink:href="#DejaVuSans-30"/>
       <use x="127.246094" xlink:href="#DejaVuSans-30"/>
      </g>
     </g>
    </g>
    <g id="ytick_3">
     <g id="line2d_3">
      <g>
       <use style="stroke:#000000;stroke-width:0.8;" x="54" xlink:href="#m2176683ace" y="914.58"/>
      </g>
     </g>
     <g id="text_3">
      <!-- 400 -->
      <defs>
       <path d="M 37.796875 64.3125 
L 12.890625 25.390625 
L 37.796875 25.390625 
z
M 35.203125 72.90625 
L 47.609375 72.90625 
L 47.609375 25.390625 
L 58.015625 25.390625 
L 58.015625 17.1875 
L 47.609375 17.1875 
L 47.609375 0 
L 37.796875 0 
L 37.796875 17.1875 
L 4.890625 17.1875 
L 4.890625 26.703125 
z
" id="DejaVuSans-34"/>
      </defs>
      <g transform="translate(27.9125 918.379219)scale(0.1 -0.1)">
       <use xlink:href="#DejaVuSans-34"/>
       <use x="63.623047" xlink:href="#DejaVuSans-30"/>
       <use x="127.246094" xlink:href="#DejaVuSans-30"/>
      </g>
     </g>
    </g>
    <g id="ytick_4">
     <g id="line2d_4">
      <g>
       <use style="stroke:#000000;stroke-width:0.8;" x="54" xlink:href="#m2176683ace" y="697.14"/>
      </g>
     </g>
     <g id="text_4">
      <!-- 600 -->
      <defs>
       <path d="M 33.015625 40.375 
Q 26.375 40.375 22.484375 35.828125 
Q 18.609375 31.296875 18.609375 23.390625 
Q 18.609375 15.53125 22.484375 10.953125 
Q 26.375 6.390625 33.015625 6.390625 
Q 39.65625 6.390625 43.53125 10.953125 
Q 47.40625 15.53125 47.40625 23.390625 
Q 47.40625 31.296875 43.53125 35.828125 
Q 39.65625 40.375 33.015625 40.375 
z
M 52.59375 71.296875 
L 52.59375 62.3125 
Q 48.875 64.0625 45.09375 64.984375 
Q 41.3125 65.921875 37.59375 65.921875 
Q 27.828125 65.921875 22.671875 59.328125 
Q 17.53125 52.734375 16.796875 39.40625 
Q 19.671875 43.65625 24.015625 45.921875 
Q 28.375 48.1875 33.59375 48.1875 
Q 44.578125 48.1875 50.953125 41.515625 
Q 57.328125 34.859375 57.328125 23.390625 
Q 57.328125 12.15625 50.6875 5.359375 
Q 44.046875 -1.421875 33.015625 -1.421875 
Q 20.359375 -1.421875 13.671875 8.265625 
Q 6.984375 17.96875 6.984375 36.375 
Q 6.984375 53.65625 15.1875 63.9375 
Q 23.390625 74.21875 37.203125 74.21875 
Q 40.921875 74.21875 44.703125 73.484375 
Q 48.484375 72.75 52.59375 71.296875 
z
" id="DejaVuSans-36"/>
      </defs>
      <g transform="translate(27.9125 700.939219)scale(0.1 -0.1)">
       <use xlink:href="#DejaVuSans-36"/>
       <use x="63.623047" xlink:href="#DejaVuSans-30"/>
       <use x="127.246094" xlink:href="#DejaVuSans-30"/>
      </g>
     </g>
    </g>
    <g id="ytick_5">
     <g id="line2d_5">
      <g>
       <use style="stroke:#000000;stroke-width:0.8;" x="54" xlink:href="#m2176683ace" y="479.7"/>
      </g>
     </g>
     <g id="text_5">
      <!-- 800 -->
      <defs>
       <path d="M 31.78125 34.625 
Q 24.75 34.625 20.71875 30.859375 
Q 16.703125 27.09375 16.703125 20.515625 
Q 16.703125 13.921875 20.71875 10.15625 
Q 24.75 6.390625 31.78125 6.390625 
Q 38.8125 6.390625 42.859375 10.171875 
Q 46.921875 13.96875 46.921875 20.515625 
Q 46.921875 27.09375 42.890625 30.859375 
Q 38.875 34.625 31.78125 34.625 
z
M 21.921875 38.8125 
Q 15.578125 40.375 12.03125 44.71875 
Q 8.5 49.078125 8.5 55.328125 
Q 8.5 64.0625 14.71875 69.140625 
Q 20.953125 74.21875 31.78125 74.21875 
Q 42.671875 74.21875 48.875 69.140625 
Q 55.078125 64.0625 55.078125 55.328125 
Q 55.078125 49.078125 51.53125 44.71875 
Q 48 40.375 41.703125 38.8125 
Q 48.828125 37.15625 52.796875 32.3125 
Q 56.78125 27.484375 56.78125 20.515625 
Q 56.78125 9.90625 50.3125 4.234375 
Q 43.84375 -1.421875 31.78125 -1.421875 
Q 19.734375 -1.421875 13.25 4.234375 
Q 6.78125 9.90625 6.78125 20.515625 
Q 6.78125 27.484375 10.78125 32.3125 
Q 14.796875 37.15625 21.921875 38.8125 
z
M 18.3125 54.390625 
Q 18.3125 48.734375 21.84375 45.5625 
Q 25.390625 42.390625 31.78125 42.390625 
Q 38.140625 42.390625 41.71875 45.5625 
Q 45.3125 48.734375 45.3125 54.390625 
Q 45.3125 60.0625 41.71875 63.234375 
Q 38.140625 66.40625 31.78125 66.40625 
Q 25.390625 66.40625 21.84375 63.234375 
Q 18.3125 60.0625 18.3125 54.390625 
z
" id="DejaVuSans-38"/>
      </defs>
      <g transform="translate(27.9125 483.499219)scale(0.1 -0.1)">
       <use xlink:href="#DejaVuSans-38"/>
       <use x="63.623047" xlink:href="#DejaVuSans-30"/>
       <use x="127.246094" xlink:href="#DejaVuSans-30"/>
      </g>
     </g>
    </g>
    <g id="ytick_6">
     <g id="line2d_6">
      <g>
       <use style="stroke:#000000;stroke-width:0.8;" x="54" xlink:href="#m2176683ace" y="262.26"/>
      </g>
     </g>
     <g id="text_6">
      <!-- 1000 -->
      <defs>
       <path d="M 12.40625 8.296875 
L 28.515625 8.296875 
L 28.515625 63.921875 
L 10.984375 60.40625 
L 10.984375 69.390625 
L 28.421875 72.90625 
L 38.28125 72.90625 
L 38.28125 8.296875 
L 54.390625 8.296875 
L 54.390625 0 
L 12.40625 0 
z
" id="DejaVuSans-31"/>
      </defs>
      <g transform="translate(21.55 266.059219)scale(0.1 -0.1)">
       <use xlink:href="#DejaVuSans-31"/>
       <use x="63.623047" xlink:href="#DejaVuSans-30"/>
       <use x="127.246094" xlink:href="#DejaVuSans-30"/>
       <use x="190.869141" xlink:href="#DejaVuSans-30"/>
      </g>
     </g>
    </g>
    <g id="text_7">
     <!-- stratigraphic height [m] -->
     <defs>
      <path d="M 44.28125 53.078125 
L 44.28125 44.578125 
Q 40.484375 46.53125 36.375 47.5 
Q 32.28125 48.484375 27.875 48.484375 
Q 21.1875 48.484375 17.84375 46.4375 
Q 14.5 44.390625 14.5 40.28125 
Q 14.5 37.15625 16.890625 35.375 
Q 19.28125 33.59375 26.515625 31.984375 
L 29.59375 31.296875 
Q 39.15625 29.25 43.1875 25.515625 
Q 47.21875 21.78125 47.21875 15.09375 
Q 47.21875 7.46875 41.1875 3.015625 
Q 35.15625 -1.421875 24.609375 -1.421875 
Q 20.21875 -1.421875 15.453125 -0.5625 
Q 10.6875 0.296875 5.421875 2 
L 5.421875 11.28125 
Q 10.40625 8.6875 15.234375 7.390625 
Q 20.0625 6.109375 24.8125 6.109375 
Q 31.15625 6.109375 34.5625 8.28125 
Q 37.984375 10.453125 37.984375 14.40625 
Q 37.984375 18.0625 35.515625 20.015625 
Q 33.0625 21.96875 24.703125 23.78125 
L 21.578125 24.515625 
Q 13.234375 26.265625 9.515625 29.90625 
Q 5.8125 33.546875 5.8125 39.890625 
Q 5.8125 47.609375 11.28125 51.796875 
Q 16.75 56 26.8125 56 
Q 31.78125 56 36.171875 55.265625 
Q 40.578125 54.546875 44.28125 53.078125 
z
" id="DejaVuSans-73"/>
      <path d="M 18.3125 70.21875 
L 18.3125 54.6875 
L 36.8125 54.6875 
L 36.8125 47.703125 
L 18.3125 47.703125 
L 18.3125 18.015625 
Q 18.3125 11.328125 20.140625 9.421875 
Q 21.96875 7.515625 27.59375 7.515625 
L 36.8125 7.515625 
L 36.8125 0 
L 27.59375 0 
Q 17.1875 0 13.234375 3.875 
Q 9.28125 7.765625 9.28125 18.015625 
L 9.28125 47.703125 
L 2.6875 47.703125 
L 2.6875 54.6875 
L 9.28125 54.6875 
L 9.28125 70.21875 
z
" id="DejaVuSans-74"/>
      <path d="M 41.109375 46.296875 
Q 39.59375 47.171875 37.8125 47.578125 
Q 36.03125 48 33.890625 48 
Q 26.265625 48 22.1875 43.046875 
Q 18.109375 38.09375 18.109375 28.8125 
L 18.109375 0 
L 9.078125 0 
L 9.078125 54.6875 
L 18.109375 54.6875 
L 18.109375 46.1875 
Q 20.953125 51.171875 25.484375 53.578125 
Q 30.03125 56 36.53125 56 
Q 37.453125 56 38.578125 55.875 
Q 39.703125 55.765625 41.0625 55.515625 
z
" id="DejaVuSans-72"/>
      <path d="M 34.28125 27.484375 
Q 23.390625 27.484375 19.1875 25 
Q 14.984375 22.515625 14.984375 16.5 
Q 14.984375 11.71875 18.140625 8.90625 
Q 21.296875 6.109375 26.703125 6.109375 
Q 34.1875 6.109375 38.703125 11.40625 
Q 43.21875 16.703125 43.21875 25.484375 
L 43.21875 27.484375 
z
M 52.203125 31.203125 
L 52.203125 0 
L 43.21875 0 
L 43.21875 8.296875 
Q 40.140625 3.328125 35.546875 0.953125 
Q 30.953125 -1.421875 24.3125 -1.421875 
Q 15.921875 -1.421875 10.953125 3.296875 
Q 6 8.015625 6 15.921875 
Q 6 25.140625 12.171875 29.828125 
Q 18.359375 34.515625 30.609375 34.515625 
L 43.21875 34.515625 
L 43.21875 35.40625 
Q 43.21875 41.609375 39.140625 45 
Q 35.0625 48.390625 27.6875 48.390625 
Q 23 48.390625 18.546875 47.265625 
Q 14.109375 46.140625 10.015625 43.890625 
L 10.015625 52.203125 
Q 14.9375 54.109375 19.578125 55.046875 
Q 24.21875 56 28.609375 56 
Q 40.484375 56 46.34375 49.84375 
Q 52.203125 43.703125 52.203125 31.203125 
z
" id="DejaVuSans-61"/>
      <path d="M 9.421875 54.6875 
L 18.40625 54.6875 
L 18.40625 0 
L 9.421875 0 
z
M 9.421875 75.984375 
L 18.40625 75.984375 
L 18.40625 64.59375 
L 9.421875 64.59375 
z
" id="DejaVuSans-69"/>
      <path d="M 45.40625 27.984375 
Q 45.40625 37.75 41.375 43.109375 
Q 37.359375 48.484375 30.078125 48.484375 
Q 22.859375 48.484375 18.828125 43.109375 
Q 14.796875 37.75 14.796875 27.984375 
Q 14.796875 18.265625 18.828125 12.890625 
Q 22.859375 7.515625 30.078125 7.515625 
Q 37.359375 7.515625 41.375 12.890625 
Q 45.40625 18.265625 45.40625 27.984375 
z
M 54.390625 6.78125 
Q 54.390625 -7.171875 48.1875 -13.984375 
Q 42 -20.796875 29.203125 -20.796875 
Q 24.46875 -20.796875 20.265625 -20.09375 
Q 16.0625 -19.390625 12.109375 -17.921875 
L 12.109375 -9.1875 
Q 16.0625 -11.328125 19.921875 -12.34375 
Q 23.78125 -13.375 27.78125 -13.375 
Q 36.625 -13.375 41.015625 -8.765625 
Q 45.40625 -4.15625 45.40625 5.171875 
L 45.40625 9.625 
Q 42.625 4.78125 38.28125 2.390625 
Q 33.9375 0 27.875 0 
Q 17.828125 0 11.671875 7.65625 
Q 5.515625 15.328125 5.515625 27.984375 
Q 5.515625 40.671875 11.671875 48.328125 
Q 17.828125 56 27.875 56 
Q 33.9375 56 38.28125 53.609375 
Q 42.625 51.21875 45.40625 46.390625 
L 45.40625 54.6875 
L 54.390625 54.6875 
z
" id="DejaVuSans-67"/>
      <path d="M 18.109375 8.203125 
L 18.109375 -20.796875 
L 9.078125 -20.796875 
L 9.078125 54.6875 
L 18.109375 54.6875 
L 18.109375 46.390625 
Q 20.953125 51.265625 25.265625 53.625 
Q 29.59375 56 35.59375 56 
Q 45.5625 56 51.78125 48.09375 
Q 58.015625 40.1875 58.015625 27.296875 
Q 58.015625 14.40625 51.78125 6.484375 
Q 45.5625 -1.421875 35.59375 -1.421875 
Q 29.59375 -1.421875 25.265625 0.953125 
Q 20.953125 3.328125 18.109375 8.203125 
z
M 48.6875 27.296875 
Q 48.6875 37.203125 44.609375 42.84375 
Q 40.53125 48.484375 33.40625 48.484375 
Q 26.265625 48.484375 22.1875 42.84375 
Q 18.109375 37.203125 18.109375 27.296875 
Q 18.109375 17.390625 22.1875 11.75 
Q 26.265625 6.109375 33.40625 6.109375 
Q 40.53125 6.109375 44.609375 11.75 
Q 48.6875 17.390625 48.6875 27.296875 
z
" id="DejaVuSans-70"/>
      <path d="M 54.890625 33.015625 
L 54.890625 0 
L 45.90625 0 
L 45.90625 32.71875 
Q 45.90625 40.484375 42.875 44.328125 
Q 39.84375 48.1875 33.796875 48.1875 
Q 26.515625 48.1875 22.3125 43.546875 
Q 18.109375 38.921875 18.109375 30.90625 
L 18.109375 0 
L 9.078125 0 
L 9.078125 75.984375 
L 18.109375 75.984375 
L 18.109375 46.1875 
Q 21.34375 51.125 25.703125 53.5625 
Q 30.078125 56 35.796875 56 
Q 45.21875 56 50.046875 50.171875 
Q 54.890625 44.34375 54.890625 33.015625 
z
" id="DejaVuSans-68"/>
      <path d="M 48.78125 52.59375 
L 48.78125 44.1875 
Q 44.96875 46.296875 41.140625 47.34375 
Q 37.3125 48.390625 33.40625 48.390625 
Q 24.65625 48.390625 19.8125 42.84375 
Q 14.984375 37.3125 14.984375 27.296875 
Q 14.984375 17.28125 19.8125 11.734375 
Q 24.65625 6.203125 33.40625 6.203125 
Q 37.3125 6.203125 41.140625 7.25 
Q 44.96875 8.296875 48.78125 10.40625 
L 48.78125 2.09375 
Q 45.015625 0.34375 40.984375 -0.53125 
Q 36.96875 -1.421875 32.421875 -1.421875 
Q 20.0625 -1.421875 12.78125 6.34375 
Q 5.515625 14.109375 5.515625 27.296875 
Q 5.515625 40.671875 12.859375 48.328125 
Q 20.21875 56 33.015625 56 
Q 37.15625 56 41.109375 55.140625 
Q 45.0625 54.296875 48.78125 52.59375 
z
" id="DejaVuSans-63"/>
      <path id="DejaVuSans-20"/>
      <path d="M 56.203125 29.59375 
L 56.203125 25.203125 
L 14.890625 25.203125 
Q 15.484375 15.921875 20.484375 11.0625 
Q 25.484375 6.203125 34.421875 6.203125 
Q 39.59375 6.203125 44.453125 7.46875 
Q 49.3125 8.734375 54.109375 11.28125 
L 54.109375 2.78125 
Q 49.265625 0.734375 44.1875 -0.34375 
Q 39.109375 -1.421875 33.890625 -1.421875 
Q 20.796875 -1.421875 13.15625 6.1875 
Q 5.515625 13.8125 5.515625 26.8125 
Q 5.515625 40.234375 12.765625 48.109375 
Q 20.015625 56 32.328125 56 
Q 43.359375 56 49.78125 48.890625 
Q 56.203125 41.796875 56.203125 29.59375 
z
M 47.21875 32.234375 
Q 47.125 39.59375 43.09375 43.984375 
Q 39.0625 48.390625 32.421875 48.390625 
Q 24.90625 48.390625 20.390625 44.140625 
Q 15.875 39.890625 15.1875 32.171875 
z
" id="DejaVuSans-65"/>
      <path d="M 8.59375 75.984375 
L 29.296875 75.984375 
L 29.296875 69 
L 17.578125 69 
L 17.578125 -6.203125 
L 29.296875 -6.203125 
L 29.296875 -13.1875 
L 8.59375 -13.1875 
z
" id="DejaVuSans-5b"/>
      <path d="M 52 44.1875 
Q 55.375 50.25 60.0625 53.125 
Q 64.75 56 71.09375 56 
Q 79.640625 56 84.28125 50.015625 
Q 88.921875 44.046875 88.921875 33.015625 
L 88.921875 0 
L 79.890625 0 
L 79.890625 32.71875 
Q 79.890625 40.578125 77.09375 44.375 
Q 74.3125 48.1875 68.609375 48.1875 
Q 61.625 48.1875 57.5625 43.546875 
Q 53.515625 38.921875 53.515625 30.90625 
L 53.515625 0 
L 44.484375 0 
L 44.484375 32.71875 
Q 44.484375 40.625 41.703125 44.40625 
Q 38.921875 48.1875 33.109375 48.1875 
Q 26.21875 48.1875 22.15625 43.53125 
Q 18.109375 38.875 18.109375 30.90625 
L 18.109375 0 
L 9.078125 0 
L 9.078125 54.6875 
L 18.109375 54.6875 
L 18.109375 46.1875 
Q 21.1875 51.21875 25.484375 53.609375 
Q 29.78125 56 35.6875 56 
Q 41.65625 56 45.828125 52.96875 
Q 50 49.953125 52 44.1875 
z
" id="DejaVuSans-6d"/>
      <path d="M 30.421875 75.984375 
L 30.421875 -13.1875 
L 9.71875 -13.1875 
L 9.71875 -6.203125 
L 21.390625 -6.203125 
L 21.390625 69 
L 9.71875 69 
L 9.71875 75.984375 
z
" id="DejaVuSans-5d"/>
     </defs>
     <g transform="translate(15.470312 826.960494)rotate(-90)scale(0.1 -0.1)">
      <use xlink:href="#DejaVuSans-73"/>
      <use x="52.099609" xlink:href="#DejaVuSans-74"/>
      <use x="91.308594" xlink:href="#DejaVuSans-72"/>
      <use x="132.421875" xlink:href="#DejaVuSans-61"/>
      <use x="193.701172" xlink:href="#DejaVuSans-74"/>
      <use x="232.910156" xlink:href="#DejaVuSans-69"/>
      <use x="260.693359" xlink:href="#DejaVuSans-67"/>
      <use x="324.169922" xlink:href="#DejaVuSans-72"/>
      <use x="365.283203" xlink:href="#DejaVuSans-61"/>
      <use x="426.5625" xlink:href="#DejaVuSans-70"/>
      <use x="490.039062" xlink:href="#DejaVuSans-68"/>
      <use x="553.417969" xlink:href="#DejaVuSans-69"/>
      <use x="581.201172" xlink:href="#DejaVuSans-63"/>
      <use x="636.181641" xlink:href="#DejaVuSans-20"/>
      <use x="667.96875" xlink:href="#DejaVuSans-68"/>
      <use x="731.347656" xlink:href="#DejaVuSans-65"/>
      <use x="792.871094" xlink:href="#DejaVuSans-69"/>
      <use x="820.654297" xlink:href="#DejaVuSans-67"/>
      <use x="884.130859" xlink:href="#DejaVuSans-68"/>
      <use x="947.509766" xlink:href="#DejaVuSans-74"/>
      <use x="986.71875" xlink:href="#DejaVuSans-20"/>
      <use x="1018.505859" xlink:href="#DejaVuSans-5b"/>
      <use x="1057.519531" xlink:href="#DejaVuSans-6d"/>
      <use x="1154.931641" xlink:href="#DejaVuSans-5d"/>
     </g>
    </g>
   </g>
   <g id="patch_35">
    <path d="M 54 1349.46 
L 54 185.0688 
" style="fill:none;stroke:#000000;stroke-linecap:square;stroke-linejoin:miter;stroke-width:0.8;"/>
   </g>
   <g id="patch_36">
    <path d="M 199.565217 1349.46 
L 199.565217 185.0688 
" style="fill:none;stroke:#000000;stroke-linecap:square;stroke-linejoin:miter;stroke-width:0.8;"/>
   </g>
   <g id="patch_37">
    <path d="M 54 1349.46 
L 199.565217 1349.46 
" style="fill:none;stroke:#000000;stroke-linecap:square;stroke-linejoin:miter;stroke-width:0.8;"/>
   </g>
   <g id="patch_38">
    <path d="M 54 185.0688 
L 199.565217 185.0688 
" style="fill:none;stroke:#000000;stroke-linecap:square;stroke-linejoin:miter;stroke-width:0.8;"/>
   </g>
  </g>
  <g id="axes_2">
   <g id="patch_39">
    <path d="M 214.121739 1349.46 
L 262.643478 1349.46 
L 262.643478 185.0688 
L 214.121739 185.0688 
z
" style="fill:#ffffff;"/>
   </g>
   <g id="PathCollection_1">
    <defs>
     <path d="M 0 -3.535534 
L -3.535534 3.535534 
L 3.535534 3.535534 
z
" id="m14a3e2c60b" style="stroke:#000000;stroke-width:0.5;"/>
    </defs>
    <g clip-path="url(#p221492f311)">
     <use style="fill:#b22222;stroke:#000000;stroke-width:0.5;" x="238.382609" xlink:href="#m14a3e2c60b" y="449.04096"/>
    </g>
   </g>
   <g id="matplotlib.axis_3"/>
   <g id="matplotlib.axis_4">
    <g id="ytick_7">
     <g id="line2d_7">
      <g>
       <use style="stroke:#000000;stroke-width:0.8;" x="214.121739" xlink:href="#m2176683ace" y="1349.46"/>
      </g>
     </g>
    </g>
    <g id="ytick_8">
     <g id="line2d_8">
      <g>
       <use style="stroke:#000000;stroke-width:0.8;" x="214.121739" xlink:href="#m2176683ace" y="1132.02"/>
      </g>
     </g>
    </g>
    <g id="ytick_9">
     <g id="line2d_9">
      <g>
       <use style="stroke:#000000;stroke-width:0.8;" x="214.121739" xlink:href="#m2176683ace" y="914.58"/>
      </g>
     </g>
    </g>
    <g id="ytick_10">
     <g id="line2d_10">
      <g>
       <use style="stroke:#000000;stroke-width:0.8;" x="214.121739" xlink:href="#m2176683ace" y="697.14"/>
      </g>
     </g>
    </g>
    <g id="ytick_11">
     <g id="line2d_11">
      <g>
       <use style="stroke:#000000;stroke-width:0.8;" x="214.121739" xlink:href="#m2176683ace" y="479.7"/>
      </g>
     </g>
    </g>
    <g id="ytick_12">
     <g id="line2d_12">
      <g>
       <use style="stroke:#000000;stroke-width:0.8;" x="214.121739" xlink:href="#m2176683ace" y="262.26"/>
      </g>
     </g>
    </g>
   </g>
   <g id="patch_40">
    <path d="M 214.121739 1349.46 
L 214.121739 185.0688 
" style="fill:none;stroke:#000000;stroke-linecap:square;stroke-linejoin:miter;stroke-width:0.8;"/>
   </g>
   <g id="patch_41">
    <path d="M 262.643478 1349.46 
L 262.643478 185.0688 
" style="fill:none;stroke:#000000;stroke-linecap:square;stroke-linejoin:miter;stroke-width:0.8;"/>
   </g>
   <g id="patch_42">
    <path d="M 214.121739 1349.46 
L 262.643478 1349.46 
" style="fill:none;stroke:#000000;stroke-linecap:square;stroke-linejoin:miter;stroke-width:0.8;"/>
   </g>
   <g id="patch_43">
    <path d="M 214.121739 185.0688 
L 262.643478 185.0688 
" style="fill:none;stroke:#000000;stroke-linecap:square;stroke-linejoin:miter;stroke-width:0.8;"/>
   </g>
   <g id="text_8">
    <!-- ashes -->
    <g transform="translate(220.960109 179.0688)scale(0.12 -0.12)">
     <use xlink:href="#DejaVuSans-61"/>
     <use x="61.279297" xlink:href="#DejaVuSans-73"/>
     <use x="113.378906" xlink:href="#DejaVuSans-68"/>
     <use x="176.757812" xlink:href="#DejaVuSans-65"/>
     <use x="238.28125" xlink:href="#DejaVuSans-73"/>
    </g>
   </g>
  </g>
  <g id="axes_3">
   <g id="patch_44">
    <path d="M 277.2 1349.46 
L 325.721739 1349.46 
L 325.721739 185.0688 
L 277.2 185.0688 
z
" style="fill:#ffffff;"/>
   </g>
   <g id="PathCollection_2">
    <defs>
     <path d="M -0 3.535534 
L 3.535534 -3.535534 
L -3.535534 -3.535534 
z
" id="mf14e8452c6" style="stroke:#000000;stroke-width:0.5;"/>
    </defs>
    <g clip-path="url(#p464408b72b)">
     <use style="fill:#dc143c;stroke:#000000;stroke-width:0.5;" x="301.46087" xlink:href="#mf14e8452c6" y="1342.82808"/>
     <use style="fill:#dc143c;stroke:#000000;stroke-width:0.5;" x="301.46087" xlink:href="#mf14e8452c6" y="486.2232"/>
    </g>
   </g>
   <g id="matplotlib.axis_5"/>
   <g id="matplotlib.axis_6">
    <g id="ytick_13">
     <g id="line2d_13">
      <g>
       <use style="stroke:#000000;stroke-width:0.8;" x="277.2" xlink:href="#m2176683ace" y="1349.46"/>
      </g>
     </g>
    </g>
    <g id="ytick_14">
     <g id="line2d_14">
      <g>
       <use style="stroke:#000000;stroke-width:0.8;" x="277.2" xlink:href="#m2176683ace" y="1132.02"/>
      </g>
     </g>
    </g>
    <g id="ytick_15">
     <g id="line2d_15">
      <g>
       <use style="stroke:#000000;stroke-width:0.8;" x="277.2" xlink:href="#m2176683ace" y="914.58"/>
      </g>
     </g>
    </g>
    <g id="ytick_16">
     <g id="line2d_16">
      <g>
       <use style="stroke:#000000;stroke-width:0.8;" x="277.2" xlink:href="#m2176683ace" y="697.14"/>
      </g>
     </g>
    </g>
    <g id="ytick_17">
     <g id="line2d_17">
      <g>
       <use style="stroke:#000000;stroke-width:0.8;" x="277.2" xlink:href="#m2176683ace" y="479.7"/>
      </g>
     </g>
    </g>
    <g id="ytick_18">
     <g id="line2d_18">
      <g>
       <use style="stroke:#000000;stroke-width:0.8;" x="277.2" xlink:href="#m2176683ace" y="262.26"/>
      </g>
     </g>
    </g>
   </g>
   <g id="patch_45">
    <path d="M 277.2 1349.46 
L 277.2 185.0688 
" style="fill:none;stroke:#000000;stroke-linecap:square;stroke-linejoin:miter;stroke-width:0.8;"/>
   </g>
   <g id="patch_46">
    <path d="M 325.721739 1349.46 
L 325.721739 185.0688 
" style="fill:none;stroke:#000000;stroke-linecap:square;stroke-linejoin:miter;stroke-width:0.8;"/>
   </g>
   <g id="patch_47">
    <path d="M 277.2 1349.46 
L 325.721739 1349.46 
" style="fill:none;stroke:#000000;stroke-linecap:square;stroke-linejoin:miter;stroke-width:0.8;"/>
   </g>
   <g id="patch_48">
    <path d="M 277.2 185.0688 
L 325.721739 185.0688 
" style="fill:none;stroke:#000000;stroke-linecap:square;stroke-linejoin:miter;stroke-width:0.8;"/>
   </g>
   <g id="text_9">
    <!-- detritals -->
    <defs>
     <path d="M 45.40625 46.390625 
L 45.40625 75.984375 
L 54.390625 75.984375 
L 54.390625 0 
L 45.40625 0 
L 45.40625 8.203125 
Q 42.578125 3.328125 38.25 0.953125 
Q 33.9375 -1.421875 27.875 -1.421875 
Q 17.96875 -1.421875 11.734375 6.484375 
Q 5.515625 14.40625 5.515625 27.296875 
Q 5.515625 40.1875 11.734375 48.09375 
Q 17.96875 56 27.875 56 
Q 33.9375 56 38.25 53.625 
Q 42.578125 51.265625 45.40625 46.390625 
z
M 14.796875 27.296875 
Q 14.796875 17.390625 18.875 11.75 
Q 22.953125 6.109375 30.078125 6.109375 
Q 37.203125 6.109375 41.296875 11.75 
Q 45.40625 17.390625 45.40625 27.296875 
Q 45.40625 37.203125 41.296875 42.84375 
Q 37.203125 48.484375 30.078125 48.484375 
Q 22.953125 48.484375 18.875 42.84375 
Q 14.796875 37.203125 14.796875 27.296875 
z
" id="DejaVuSans-64"/>
     <path d="M 9.421875 75.984375 
L 18.40625 75.984375 
L 18.40625 0 
L 9.421875 0 
z
" id="DejaVuSans-6c"/>
    </defs>
    <g transform="translate(276.652745 179.0688)scale(0.12 -0.12)">
     <use xlink:href="#DejaVuSans-64"/>
     <use x="63.476562" xlink:href="#DejaVuSans-65"/>
     <use x="125" xlink:href="#DejaVuSans-74"/>
     <use x="164.208984" xlink:href="#DejaVuSans-72"/>
     <use x="205.322266" xlink:href="#DejaVuSans-69"/>
     <use x="233.105469" xlink:href="#DejaVuSans-74"/>
     <use x="272.314453" xlink:href="#DejaVuSans-61"/>
     <use x="333.59375" xlink:href="#DejaVuSans-6c"/>
     <use x="361.376953" xlink:href="#DejaVuSans-73"/>
    </g>
   </g>
  </g>
  <g id="axes_4">
   <g id="patch_49">
    <path d="M 340.278261 1349.46 
L 388.8 1349.46 
L 388.8 185.0688 
L 340.278261 185.0688 
z
" style="fill:#ffffff;"/>
   </g>
   <g id="PathCollection_3">
    <defs>
     <path d="M 0 1.581139 
C 0.419323 1.581139 0.821528 1.41454 1.118034 1.118034 
C 1.41454 0.821528 1.581139 0.419323 1.581139 0 
C 1.581139 -0.419323 1.41454 -0.821528 1.118034 -1.118034 
C 0.821528 -1.41454 0.419323 -1.581139 0 -1.581139 
C -0.419323 -1.581139 -0.821528 -1.41454 -1.118034 -1.118034 
C -1.41454 -0.821528 -1.581139 -0.419323 -1.581139 0 
C -1.581139 0.419323 -1.41454 0.821528 -1.118034 1.118034 
C -0.821528 1.41454 -0.419323 1.581139 0 1.581139 
z
" id="m536281b859" style="stroke:#000000;stroke-width:0.1;"/>
    </defs>
    <g clip-path="url(#pdaf367aebc)">
     <use style="fill:#1e90ff;stroke:#000000;stroke-width:0.1;" x="364.53913" xlink:href="#m536281b859" y="1337.33772"/>
     <use style="fill:#1e90ff;stroke:#000000;stroke-width:0.1;" x="364.53913" xlink:href="#m536281b859" y="1337.33772"/>
     <use style="fill:#1e90ff;stroke:#000000;stroke-width:0.1;" x="364.53913" xlink:href="#m536281b859" y="1337.33772"/>
     <use style="fill:#1e90ff;stroke:#000000;stroke-width:0.1;" x="364.53913" xlink:href="#m536281b859" y="1337.33772"/>
     <use style="fill:#1e90ff;stroke:#000000;stroke-width:0.1;" x="364.53913" xlink:href="#m536281b859" y="1337.33772"/>
     <use style="fill:#1e90ff;stroke:#000000;stroke-width:0.1;" x="364.53913" xlink:href="#m536281b859" y="1337.33772"/>
     <use style="fill:#1e90ff;stroke:#000000;stroke-width:0.1;" x="364.53913" xlink:href="#m536281b859" y="1337.33772"/>
     <use style="fill:#1e90ff;stroke:#000000;stroke-width:0.1;" x="364.53913" xlink:href="#m536281b859" y="1337.33772"/>
     <use style="fill:#1e90ff;stroke:#000000;stroke-width:0.1;" x="364.53913" xlink:href="#m536281b859" y="1337.33772"/>
     <use style="fill:#1e90ff;stroke:#000000;stroke-width:0.1;" x="364.53913" xlink:href="#m536281b859" y="1337.33772"/>
     <use style="fill:#1e90ff;stroke:#000000;stroke-width:0.1;" x="364.53913" xlink:href="#m536281b859" y="1337.33772"/>
     <use style="fill:#1e90ff;stroke:#000000;stroke-width:0.1;" x="364.53913" xlink:href="#m536281b859" y="1337.33772"/>
     <use style="fill:#1e90ff;stroke:#000000;stroke-width:0.1;" x="364.53913" xlink:href="#m536281b859" y="1337.33772"/>
     <use style="fill:#1e90ff;stroke:#000000;stroke-width:0.1;" x="364.53913" xlink:href="#m536281b859" y="1337.33772"/>
     <use style="fill:#1e90ff;stroke:#000000;stroke-width:0.1;" x="364.53913" xlink:href="#m536281b859" y="1337.33772"/>
     <use style="fill:#1e90ff;stroke:#000000;stroke-width:0.1;" x="364.53913" xlink:href="#m536281b859" y="1337.33772"/>
     <use style="fill:#1e90ff;stroke:#000000;stroke-width:0.1;" x="364.53913" xlink:href="#m536281b859" y="1337.33772"/>
     <use style="fill:#1e90ff;stroke:#000000;stroke-width:0.1;" x="364.53913" xlink:href="#m536281b859" y="1337.33772"/>
     <use style="fill:#1e90ff;stroke:#000000;stroke-width:0.1;" x="364.53913" xlink:href="#m536281b859" y="1337.33772"/>
     <use style="fill:#1e90ff;stroke:#000000;stroke-width:0.1;" x="364.53913" xlink:href="#m536281b859" y="1337.33772"/>
     <use style="fill:#1e90ff;stroke:#000000;stroke-width:0.1;" x="364.53913" xlink:href="#m536281b859" y="1337.33772"/>
     <use style="fill:#1e90ff;stroke:#000000;stroke-width:0.1;" x="364.53913" xlink:href="#m536281b859" y="1337.33772"/>
     <use style="fill:#1e90ff;stroke:#000000;stroke-width:0.1;" x="364.53913" xlink:href="#m536281b859" y="1337.33772"/>
     <use style="fill:#1e90ff;stroke:#000000;stroke-width:0.1;" x="364.53913" xlink:href="#m536281b859" y="1337.33772"/>
     <use style="fill:#1e90ff;stroke:#000000;stroke-width:0.1;" x="364.53913" xlink:href="#m536281b859" y="1337.33772"/>
     <use style="fill:#1e90ff;stroke:#000000;stroke-width:0.1;" x="364.53913" xlink:href="#m536281b859" y="1337.33772"/>
     <use style="fill:#1e90ff;stroke:#000000;stroke-width:0.1;" x="364.53913" xlink:href="#m536281b859" y="1337.33772"/>
     <use style="fill:#1e90ff;stroke:#000000;stroke-width:0.1;" x="364.53913" xlink:href="#m536281b859" y="1337.33772"/>
     <use style="fill:#1e90ff;stroke:#000000;stroke-width:0.1;" x="364.53913" xlink:href="#m536281b859" y="1337.33772"/>
     <use style="fill:#1e90ff;stroke:#000000;stroke-width:0.1;" x="364.53913" xlink:href="#m536281b859" y="1337.33772"/>
     <use style="fill:#1e90ff;stroke:#000000;stroke-width:0.1;" x="364.53913" xlink:href="#m536281b859" y="1337.33772"/>
     <use style="fill:#1e90ff;stroke:#000000;stroke-width:0.1;" x="364.53913" xlink:href="#m536281b859" y="1337.33772"/>
     <use style="fill:#1e90ff;stroke:#000000;stroke-width:0.1;" x="364.53913" xlink:href="#m536281b859" y="1337.33772"/>
     <use style="fill:#1e90ff;stroke:#000000;stroke-width:0.1;" x="364.53913" xlink:href="#m536281b859" y="1337.33772"/>
     <use style="fill:#1e90ff;stroke:#000000;stroke-width:0.1;" x="364.53913" xlink:href="#m536281b859" y="1337.33772"/>
     <use style="fill:#1e90ff;stroke:#000000;stroke-width:0.1;" x="364.53913" xlink:href="#m536281b859" y="516.6648"/>
     <use style="fill:#1e90ff;stroke:#000000;stroke-width:0.1;" x="364.53913" xlink:href="#m536281b859" y="516.414744"/>
     <use style="fill:#1e90ff;stroke:#000000;stroke-width:0.1;" x="364.53913" xlink:href="#m536281b859" y="516.33864"/>
     <use style="fill:#1e90ff;stroke:#000000;stroke-width:0.1;" x="364.53913" xlink:href="#m536281b859" y="515.882016"/>
     <use style="fill:#1e90ff;stroke:#000000;stroke-width:0.1;" x="364.53913" xlink:href="#m536281b859" y="515.708064"/>
     <use style="fill:#1e90ff;stroke:#000000;stroke-width:0.1;" x="364.53913" xlink:href="#m536281b859" y="515.5776"/>
     <use style="fill:#1e90ff;stroke:#000000;stroke-width:0.1;" x="364.53913" xlink:href="#m536281b859" y="514.838304"/>
     <use style="fill:#1e90ff;stroke:#000000;stroke-width:0.1;" x="364.53913" xlink:href="#m536281b859" y="514.609992"/>
     <use style="fill:#1e90ff;stroke:#000000;stroke-width:0.1;" x="364.53913" xlink:href="#m536281b859" y="514.588248"/>
     <use style="fill:#1e90ff;stroke:#000000;stroke-width:0.1;" x="364.53913" xlink:href="#m536281b859" y="485.89704"/>
     <use style="fill:#1e90ff;stroke:#000000;stroke-width:0.1;" x="364.53913" xlink:href="#m536281b859" y="485.940528"/>
     <use style="fill:#1e90ff;stroke:#000000;stroke-width:0.1;" x="364.53913" xlink:href="#m536281b859" y="484.418448"/>
     <use style="fill:#1e90ff;stroke:#000000;stroke-width:0.1;" x="364.53913" xlink:href="#m536281b859" y="482.700672"/>
     <use style="fill:#1e90ff;stroke:#000000;stroke-width:0.1;" x="364.53913" xlink:href="#m536281b859" y="482.678928"/>
     <use style="fill:#1e90ff;stroke:#000000;stroke-width:0.1;" x="364.53913" xlink:href="#m536281b859" y="482.233176"/>
     <use style="fill:#1e90ff;stroke:#000000;stroke-width:0.1;" x="364.53913" xlink:href="#m536281b859" y="482.20056"/>
     <use style="fill:#1e90ff;stroke:#000000;stroke-width:0.1;" x="364.53913" xlink:href="#m536281b859" y="482.070096"/>
     <use style="fill:#1e90ff;stroke:#000000;stroke-width:0.1;" x="364.53913" xlink:href="#m536281b859" y="481.298184"/>
     <use style="fill:#1e90ff;stroke:#000000;stroke-width:0.1;" x="364.53913" xlink:href="#m536281b859" y="471.154608"/>
     <use style="fill:#1e90ff;stroke:#000000;stroke-width:0.1;" x="364.53913" xlink:href="#m536281b859" y="470.991528"/>
     <use style="fill:#1e90ff;stroke:#000000;stroke-width:0.1;" x="364.53913" xlink:href="#m536281b859" y="470.969784"/>
     <use style="fill:#1e90ff;stroke:#000000;stroke-width:0.1;" x="364.53913" xlink:href="#m536281b859" y="469.741248"/>
     <use style="fill:#1e90ff;stroke:#000000;stroke-width:0.1;" x="364.53913" xlink:href="#m536281b859" y="469.132416"/>
     <use style="fill:#1e90ff;stroke:#000000;stroke-width:0.1;" x="364.53913" xlink:href="#m536281b859" y="655.06536"/>
     <use style="fill:#1e90ff;stroke:#000000;stroke-width:0.1;" x="364.53913" xlink:href="#m536281b859" y="654.84792"/>
     <use style="fill:#1e90ff;stroke:#000000;stroke-width:0.1;" x="364.53913" xlink:href="#m536281b859" y="654.554376"/>
     <use style="fill:#1e90ff;stroke:#000000;stroke-width:0.1;" x="364.53913" xlink:href="#m536281b859" y="654.369552"/>
     <use style="fill:#1e90ff;stroke:#000000;stroke-width:0.1;" x="364.53913" xlink:href="#m536281b859" y="653.010552"/>
     <use style="fill:#1e90ff;stroke:#000000;stroke-width:0.1;" x="364.53913" xlink:href="#m536281b859" y="652.717008"/>
     <use style="fill:#1e90ff;stroke:#000000;stroke-width:0.1;" x="364.53913" xlink:href="#m536281b859" y="652.477824"/>
     <use style="fill:#1e90ff;stroke:#000000;stroke-width:0.1;" x="364.53913" xlink:href="#m536281b859" y="649.270584"/>
     <use style="fill:#1e90ff;stroke:#000000;stroke-width:0.1;" x="364.53913" xlink:href="#m536281b859" y="649.161864"/>
     <use style="fill:#1e90ff;stroke:#000000;stroke-width:0.1;" x="364.53913" xlink:href="#m536281b859" y="649.0314"/>
     <use style="fill:#1e90ff;stroke:#000000;stroke-width:0.1;" x="364.53913" xlink:href="#m536281b859" y="648.81396"/>
     <use style="fill:#1e90ff;stroke:#000000;stroke-width:0.1;" x="364.53913" xlink:href="#m536281b859" y="1213.66872"/>
     <use style="fill:#1e90ff;stroke:#000000;stroke-width:0.1;" x="364.53913" xlink:href="#m536281b859" y="1213.146864"/>
     <use style="fill:#1e90ff;stroke:#000000;stroke-width:0.1;" x="364.53913" xlink:href="#m536281b859" y="1213.135992"/>
     <use style="fill:#1e90ff;stroke:#000000;stroke-width:0.1;" x="364.53913" xlink:href="#m536281b859" y="1212.679368"/>
     <use style="fill:#1e90ff;stroke:#000000;stroke-width:0.1;" x="364.53913" xlink:href="#m536281b859" y="1211.472576"/>
     <use style="fill:#1e90ff;stroke:#000000;stroke-width:0.1;" x="364.53913" xlink:href="#m536281b859" y="1211.461704"/>
     <use style="fill:#1e90ff;stroke:#000000;stroke-width:0.1;" x="364.53913" xlink:href="#m536281b859" y="1211.352984"/>
     <use style="fill:#1e90ff;stroke:#000000;stroke-width:0.1;" x="364.53913" xlink:href="#m536281b859" y="1210.700664"/>
     <use style="fill:#1e90ff;stroke:#000000;stroke-width:0.1;" x="364.53913" xlink:href="#m536281b859" y="1210.428864"/>
     <use style="fill:#1e90ff;stroke:#000000;stroke-width:0.1;" x="364.53913" xlink:href="#m536281b859" y="1210.102704"/>
     <use style="fill:#1e90ff;stroke:#000000;stroke-width:0.1;" x="364.53913" xlink:href="#m536281b859" y="1209.678696"/>
     <use style="fill:#1e90ff;stroke:#000000;stroke-width:0.1;" x="364.53913" xlink:href="#m536281b859" y="1208.471904"/>
     <use style="fill:#1e90ff;stroke:#000000;stroke-width:0.1;" x="364.53913" xlink:href="#m536281b859" y="1208.254464"/>
    </g>
   </g>
   <g id="matplotlib.axis_7"/>
   <g id="matplotlib.axis_8">
    <g id="ytick_19">
     <g id="line2d_19">
      <g>
       <use style="stroke:#000000;stroke-width:0.8;" x="340.278261" xlink:href="#m2176683ace" y="1349.46"/>
      </g>
     </g>
    </g>
    <g id="ytick_20">
     <g id="line2d_20">
      <g>
       <use style="stroke:#000000;stroke-width:0.8;" x="340.278261" xlink:href="#m2176683ace" y="1132.02"/>
      </g>
     </g>
    </g>
    <g id="ytick_21">
     <g id="line2d_21">
      <g>
       <use style="stroke:#000000;stroke-width:0.8;" x="340.278261" xlink:href="#m2176683ace" y="914.58"/>
      </g>
     </g>
    </g>
    <g id="ytick_22">
     <g id="line2d_22">
      <g>
       <use style="stroke:#000000;stroke-width:0.8;" x="340.278261" xlink:href="#m2176683ace" y="697.14"/>
      </g>
     </g>
    </g>
    <g id="ytick_23">
     <g id="line2d_23">
      <g>
       <use style="stroke:#000000;stroke-width:0.8;" x="340.278261" xlink:href="#m2176683ace" y="479.7"/>
      </g>
     </g>
    </g>
    <g id="ytick_24">
     <g id="line2d_24">
      <g>
       <use style="stroke:#000000;stroke-width:0.8;" x="340.278261" xlink:href="#m2176683ace" y="262.26"/>
      </g>
     </g>
    </g>
   </g>
   <g id="patch_50">
    <path d="M 340.278261 1349.46 
L 340.278261 185.0688 
" style="fill:none;stroke:#000000;stroke-linecap:square;stroke-linejoin:miter;stroke-width:0.8;"/>
   </g>
   <g id="patch_51">
    <path d="M 388.8 1349.46 
L 388.8 185.0688 
" style="fill:none;stroke:#000000;stroke-linecap:square;stroke-linejoin:miter;stroke-width:0.8;"/>
   </g>
   <g id="patch_52">
    <path d="M 340.278261 1349.46 
L 388.8 1349.46 
" style="fill:none;stroke:#000000;stroke-linecap:square;stroke-linejoin:miter;stroke-width:0.8;"/>
   </g>
   <g id="patch_53">
    <path d="M 340.278261 185.0688 
L 388.8 185.0688 
" style="fill:none;stroke:#000000;stroke-linecap:square;stroke-linejoin:miter;stroke-width:0.8;"/>
   </g>
   <g id="text_10">
    <!-- cores -->
    <defs>
     <path d="M 30.609375 48.390625 
Q 23.390625 48.390625 19.1875 42.75 
Q 14.984375 37.109375 14.984375 27.296875 
Q 14.984375 17.484375 19.15625 11.84375 
Q 23.34375 6.203125 30.609375 6.203125 
Q 37.796875 6.203125 41.984375 11.859375 
Q 46.1875 17.53125 46.1875 27.296875 
Q 46.1875 37.015625 41.984375 42.703125 
Q 37.796875 48.390625 30.609375 48.390625 
z
M 30.609375 56 
Q 42.328125 56 49.015625 48.375 
Q 55.71875 40.765625 55.71875 27.296875 
Q 55.71875 13.875 49.015625 6.21875 
Q 42.328125 -1.421875 30.609375 -1.421875 
Q 18.84375 -1.421875 12.171875 6.21875 
Q 5.515625 13.875 5.515625 27.296875 
Q 5.515625 40.765625 12.171875 48.375 
Q 18.84375 56 30.609375 56 
z
" id="DejaVuSans-6f"/>
    </defs>
    <g transform="translate(348.28663 179.0688)scale(0.12 -0.12)">
     <use xlink:href="#DejaVuSans-63"/>
     <use x="54.980469" xlink:href="#DejaVuSans-6f"/>
     <use x="116.162109" xlink:href="#DejaVuSans-72"/>
     <use x="157.244141" xlink:href="#DejaVuSans-65"/>
     <use x="218.767578" xlink:href="#DejaVuSans-73"/>
    </g>
   </g>
  </g>
 </g>
 <defs>
  <clipPath id="p57345fb47d">
   <rect height="1164.3912" width="145.565217" x="54" y="185.0688"/>
  </clipPath>
  <clipPath id="p221492f311">
   <rect height="1164.3912" width="48.521739" x="214.121739" y="185.0688"/>
  </clipPath>
  <clipPath id="p464408b72b">
   <rect height="1164.3912" width="48.521739" x="277.2" y="185.0688"/>
  </clipPath>
  <clipPath id="pdaf367aebc">
   <rect height="1164.3912" width="48.521739" x="340.278261" y="185.0688"/>
  </clipPath>
 </defs>
</svg>
