<?xml version="1.0" encoding="utf-8" standalone="no"?>
<!DOCTYPE svg PUBLIC "-//W3C//DTD SVG 1.1//EN"
  "http://www.w3.org/Graphics/SVG/1.1/DTD/svg11.dtd">
<!-- Created with matplotlib (http://matplotlib.org/) -->
<svg height="3527pt" version="1.1" viewBox="0 0 432 3527" width="432pt" xmlns="http://www.w3.org/2000/svg" xmlns:xlink="http://www.w3.org/1999/xlink">
 <defs>
  <style type="text/css">
*{stroke-linecap:butt;stroke-linejoin:round;}
  </style>
 </defs>
 <g id="figure_1">
  <g id="patch_1">
   <path d="M 0 3527.424 
L 432 3527.424 
L 432 0 
L 0 0 
z
" style="fill:#ffffff;"/>
  </g>
  <g id="axes_1">
   <g id="patch_2">
    <path d="M 54 3086.496 
L 199.565217 3086.496 
L 199.565217 423.29088 
L 54 423.29088 
z
" style="fill:#ffffff;"/>
   </g>
   <g id="patch_3">
    <path clip-path="url(#pe6dd08f70f)" d="M 54 3086.496 
L 104.947826 3086.496 
L 104.947826 3021.264 
L 54 3021.264 
z
" style="fill:#2bb673;stroke:#000000;stroke-linejoin:miter;"/>
   </g>
   <g id="patch_4">
    <path clip-path="url(#pe6dd08f70f)" d="M 54 3021.264 
L 104.947826 3021.264 
L 104.947826 3013.11 
L 54 3013.11 
z
" style="fill:#82aaff;stroke:#000000;stroke-linejoin:miter;"/>
   </g>
   <g id="patch_5">
    <path clip-path="url(#pe6dd08f70f)" d="M 54 3013.11 
L 104.947826 3013.11 
L 104.947826 3002.02056 
L 54 3002.02056 
z
" style="fill:#2bb673;stroke:#000000;stroke-linejoin:miter;"/>
   </g>
   <g id="patch_6">
    <path clip-path="url(#pe6dd08f70f)" d="M 54 3002.02056 
L 104.947826 3002.02056 
L 104.947826 2977.55856 
L 54 2977.55856 
z
" style="fill:#e73c49;stroke:#000000;stroke-linejoin:miter;"/>
   </g>
   <g id="patch_7">
    <path clip-path="url(#pe6dd08f70f)" d="M 54 2977.55856 
L 83.113043 2977.55856 
L 83.113043 2967.77376 
L 54 2967.77376 
z
" style="fill:#ffffff;stroke:#000000;stroke-linejoin:miter;"/>
   </g>
   <g id="patch_8">
    <path clip-path="url(#pe6dd08f70f)" d="M 54 2967.77376 
L 104.947826 2967.77376 
L 104.947826 2914.60968 
L 54 2914.60968 
z
" style="fill:#e73c49;stroke:#000000;stroke-linejoin:miter;"/>
   </g>
   <g id="patch_9">
    <path clip-path="url(#pe6dd08f70f)" d="M 54 2914.60968 
L 83.113043 2914.60968 
L 83.113043 2591.92872 
L 54 2591.92872 
z
" style="fill:#ffffff;stroke:#000000;stroke-linejoin:miter;"/>
   </g>
   <g id="patch_10">
    <path clip-path="url(#pe6dd08f70f)" d="M 54 2591.92872 
L 104.947826 2591.92872 
L 104.947826 2584.42704 
L 54 2584.42704 
z
" style="fill:#2bb673;stroke:#000000;stroke-linejoin:miter;"/>
   </g>
   <g id="patch_11">
    <path clip-path="url(#pe6dd08f70f)" d="M 54 2584.42704 
L 104.947826 2584.42704 
L 104.947826 2579.09976 
L 54 2579.09976 
z
" style="fill:#82aaff;stroke:#000000;stroke-linejoin:miter;"/>
   </g>
   <g id="patch_12">
    <path clip-path="url(#pe6dd08f70f)" d="M 54 2579.09976 
L 83.113043 2579.09976 
L 83.113043 2524.19616 
L 54 2524.19616 
z
" style="fill:#ffffff;stroke:#000000;stroke-linejoin:miter;"/>
   </g>
   <g id="patch_13">
    <path clip-path="url(#pe6dd08f70f)" d="M 54 2524.19616 
L 104.947826 2524.19616 
L 104.947826 2512.78056 
L 54 2512.78056 
z
" style="fill:#5078c8;stroke:#000000;stroke-linejoin:miter;"/>
   </g>
   <g id="patch_14">
    <path clip-path="url(#pe6dd08f70f)" d="M 54 2512.78056 
L 83.113043 2512.78056 
L 83.113043 2422.54296 
L 54 2422.54296 
z
" style="fill:#ffffff;stroke:#000000;stroke-linejoin:miter;"/>
   </g>
   <g id="patch_15">
    <path clip-path="url(#pe6dd08f70f)" d="M 54 2422.54296 
L 104.947826 2422.54296 
L 104.947826 2417.65056 
L 54 2417.65056 
z
" style="fill:#2bb673;stroke:#000000;stroke-linejoin:miter;"/>
   </g>
   <g id="patch_16">
    <path clip-path="url(#pe6dd08f70f)" d="M 54 2417.65056 
L 83.113043 2417.65056 
L 83.113043 2275.55352 
L 54 2275.55352 
z
" style="fill:#ffffff;stroke:#000000;stroke-linejoin:miter;"/>
   </g>
   <g id="patch_17">
    <path clip-path="url(#pe6dd08f70f)" d="M 54 2275.55352 
L 104.947826 2275.55352 
L 104.947826 2257.61472 
L 54 2257.61472 
z
" style="fill:#2bb673;stroke:#000000;stroke-linejoin:miter;"/>
   </g>
   <g id="patch_18">
    <path clip-path="url(#pe6dd08f70f)" d="M 54 2257.61472 
L 83.113043 2257.61472 
L 83.113043 2241.30672 
L 54 2241.30672 
z
" style="fill:#ffffff;stroke:#000000;stroke-linejoin:miter;"/>
   </g>
   <g id="patch_19">
    <path clip-path="url(#pe6dd08f70f)" d="M 54 2241.30672 
L 104.947826 2241.30672 
L 104.947826 2207.4948 
L 54 2207.4948 
z
" style="fill:#2bb673;stroke:#000000;stroke-linejoin:miter;"/>
   </g>
   <g id="patch_20">
    <path clip-path="url(#pe6dd08f70f)" d="M 54 2207.4948 
L 104.947826 2207.4948 
L 104.947826 2202.6024 
L 54 2202.6024 
z
" style="fill:#82aaff;stroke:#000000;stroke-linejoin:miter;"/>
   </g>
   <g id="patch_21">
    <path clip-path="url(#pe6dd08f70f)" d="M 54 2202.6024 
L 83.113043 2202.6024 
L 83.113043 2161.8324 
L 54 2161.8324 
z
" style="fill:#ffffff;stroke:#000000;stroke-linejoin:miter;"/>
   </g>
   <g id="patch_22">
    <path clip-path="url(#pe6dd08f70f)" d="M 54 2161.8324 
L 104.947826 2161.8324 
L 104.947826 2157.15744 
L 54 2157.15744 
z
" style="fill:#2bb673;stroke:#000000;stroke-linejoin:miter;"/>
   </g>
   <g id="patch_23">
    <path clip-path="url(#pe6dd08f70f)" d="M 54 2157.15744 
L 104.947826 2157.15744 
L 104.947826 2144.76336 
L 54 2144.76336 
z
" style="fill:#82aaff;stroke:#000000;stroke-linejoin:miter;"/>
   </g>
   <g id="patch_24">
    <path clip-path="url(#pe6dd08f70f)" d="M 54 2144.76336 
L 104.947826 2144.76336 
L 104.947826 2132.36928 
L 54 2132.36928 
z
" style="fill:#2bb673;stroke:#000000;stroke-linejoin:miter;"/>
   </g>
   <g id="patch_25">
    <path clip-path="url(#pe6dd08f70f)" d="M 54 2132.36928 
L 104.947826 2132.36928 
L 104.947826 2120.95368 
L 54 2120.95368 
z
" style="fill:#82aaff;stroke:#000000;stroke-linejoin:miter;"/>
   </g>
   <g id="patch_26">
    <path clip-path="url(#pe6dd08f70f)" d="M 54 2120.95368 
L 104.947826 2120.95368 
L 104.947826 2111.16888 
L 54 2111.16888 
z
" style="fill:#2bb673;stroke:#000000;stroke-linejoin:miter;"/>
   </g>
   <g id="patch_27">
    <path clip-path="url(#pe6dd08f70f)" d="M 54 2111.16888 
L 83.113043 2111.16888 
L 83.113043 2012.23368 
L 54 2012.23368 
z
" style="fill:#ffffff;stroke:#000000;stroke-linejoin:miter;"/>
   </g>
   <g id="patch_28">
    <path clip-path="url(#pe6dd08f70f)" d="M 54 2012.23368 
L 104.947826 2012.23368 
L 104.947826 2006.47152 
L 54 2006.47152 
z
" style="fill:#82aaff;stroke:#000000;stroke-linejoin:miter;"/>
   </g>
   <g id="patch_29">
    <path clip-path="url(#pe6dd08f70f)" d="M 54 2006.47152 
L 104.947826 2006.47152 
L 104.947826 1993.42512 
L 54 1993.42512 
z
" style="fill:#2bb673;stroke:#000000;stroke-linejoin:miter;"/>
   </g>
   <g id="patch_30">
    <path clip-path="url(#pe6dd08f70f)" d="M 54 1993.42512 
L 104.947826 1993.42512 
L 104.947826 1978.74792 
L 54 1978.74792 
z
" style="fill:#5078c8;stroke:#000000;stroke-linejoin:miter;"/>
   </g>
   <g id="patch_31">
    <path clip-path="url(#pe6dd08f70f)" d="M 54 1978.74792 
L 83.113043 1978.74792 
L 83.113043 1841.97816 
L 54 1841.97816 
z
" style="fill:#ffffff;stroke:#000000;stroke-linejoin:miter;"/>
   </g>
   <g id="patch_32">
    <path clip-path="url(#pe6dd08f70f)" d="M 54 1841.97816 
L 104.947826 1841.97816 
L 104.947826 1791.96696 
L 54 1791.96696 
z
" style="fill:#5078c8;stroke:#000000;stroke-linejoin:miter;"/>
   </g>
   <g id="patch_33">
    <path clip-path="url(#pe6dd08f70f)" d="M 54 1791.96696 
L 83.113043 1791.96696 
L 83.113043 1680.63768 
L 54 1680.63768 
z
" style="fill:#ffffff;stroke:#000000;stroke-linejoin:miter;"/>
   </g>
   <g id="patch_34">
    <path clip-path="url(#pe6dd08f70f)" d="M 54 1680.63768 
L 104.947826 1680.63768 
L 104.947826 1659.43728 
L 54 1659.43728 
z
" style="fill:#5078c8;stroke:#000000;stroke-linejoin:miter;"/>
   </g>
   <g id="patch_35">
    <path clip-path="url(#pe6dd08f70f)" d="M 54 1659.43728 
L 83.113043 1659.43728 
L 83.113043 1367.74152 
L 54 1367.74152 
z
" style="fill:#ffffff;stroke:#000000;stroke-linejoin:miter;"/>
   </g>
   <g id="patch_36">
    <path clip-path="url(#pe6dd08f70f)" d="M 54 1367.74152 
L 104.947826 1367.74152 
L 104.947826 1355.23872 
L 54 1355.23872 
z
" style="fill:#5078c8;stroke:#000000;stroke-linejoin:miter;"/>
   </g>
   <g id="patch_37">
    <path clip-path="url(#pe6dd08f70f)" d="M 54 1355.23872 
L 83.113043 1355.23872 
L 83.113043 1340.56152 
L 54 1340.56152 
z
" style="fill:#ffffff;stroke:#000000;stroke-linejoin:miter;"/>
   </g>
   <g id="patch_38">
    <path clip-path="url(#pe6dd08f70f)" d="M 54 1340.56152 
L 104.947826 1340.56152 
L 104.947826 1295.66016 
L 54 1295.66016 
z
" style="fill:#5078c8;stroke:#000000;stroke-linejoin:miter;"/>
   </g>
   <g id="patch_39">
    <path clip-path="url(#pe6dd08f70f)" d="M 54 1295.66016 
L 97.669565 1295.66016 
L 97.669565 1287.28872 
L 54 1287.28872 
z
" style="fill:#e73c49;stroke:#000000;stroke-linejoin:miter;"/>
   </g>
   <g id="patch_40">
    <path clip-path="url(#pe6dd08f70f)" d="M 54 1287.28872 
L 199.565217 1287.28872 
L 199.565217 1287.18 
L 54 1287.18 
z
" style="fill:#ffd3dc;stroke:#000000;stroke-linejoin:miter;"/>
   </g>
   <g id="patch_41">
    <path clip-path="url(#pe6dd08f70f)" d="M 54 1287.18 
L 97.669565 1287.18 
L 97.669565 1284.35328 
L 54 1284.35328 
z
" style="fill:#e73c49;stroke:#000000;stroke-linejoin:miter;"/>
   </g>
   <g id="patch_42">
    <path clip-path="url(#pe6dd08f70f)" d="M 54 1284.35328 
L 104.947826 1284.35328 
L 104.947826 1279.46088 
L 54 1279.46088 
z
" style="fill:#5078c8;stroke:#000000;stroke-linejoin:miter;"/>
   </g>
   <g id="patch_43">
    <path clip-path="url(#pe6dd08f70f)" d="M 54 1279.46088 
L 83.113043 1279.46088 
L 83.113043 1209.77136 
L 54 1209.77136 
z
" style="fill:#ffffff;stroke:#000000;stroke-linejoin:miter;"/>
   </g>
   <g id="patch_44">
    <path clip-path="url(#pe6dd08f70f)" d="M 54 1209.77136 
L 97.669565 1209.77136 
L 97.669565 1201.61736 
L 54 1201.61736 
z
" style="fill:#e73c49;stroke:#000000;stroke-linejoin:miter;"/>
   </g>
   <g id="patch_45">
    <path clip-path="url(#pe6dd08f70f)" d="M 54 1201.61736 
L 97.669565 1201.61736 
L 97.669565 1198.0296 
L 54 1198.0296 
z
" style="fill:#e73c49;stroke:#000000;stroke-linejoin:miter;"/>
   </g>
   <g id="patch_46">
    <path clip-path="url(#pe6dd08f70f)" d="M 54 1198.0296 
L 104.947826 1198.0296 
L 104.947826 1124.53488 
L 54 1124.53488 
z
" style="fill:#5078c8;stroke:#000000;stroke-linejoin:miter;"/>
   </g>
   <g id="patch_47">
    <path clip-path="url(#pe6dd08f70f)" d="M 54 1124.53488 
L 83.113043 1124.53488 
L 83.113043 1053.10584 
L 54 1053.10584 
z
" style="fill:#ffffff;stroke:#000000;stroke-linejoin:miter;"/>
   </g>
   <g id="patch_48">
    <path clip-path="url(#pe6dd08f70f)" d="M 54 1053.10584 
L 104.947826 1053.10584 
L 104.947826 1046.58264 
L 54 1046.58264 
z
" style="fill:#5078c8;stroke:#000000;stroke-linejoin:miter;"/>
   </g>
   <g id="patch_49">
    <path clip-path="url(#pe6dd08f70f)" d="M 54 1046.58264 
L 83.113043 1046.58264 
L 83.113043 1041.90768 
L 54 1041.90768 
z
" style="fill:#ffffff;stroke:#000000;stroke-linejoin:miter;"/>
   </g>
   <g id="patch_50">
    <path clip-path="url(#pe6dd08f70f)" d="M 54 1041.90768 
L 104.947826 1041.90768 
L 104.947826 1040.82048 
L 54 1040.82048 
z
" style="fill:#5078c8;stroke:#000000;stroke-linejoin:miter;"/>
   </g>
   <g id="patch_51">
    <path clip-path="url(#pe6dd08f70f)" d="M 54 1040.82048 
L 104.947826 1040.82048 
L 104.947826 1039.51584 
L 54 1039.51584 
z
" style="fill:#2bb673;stroke:#000000;stroke-linejoin:miter;"/>
   </g>
   <g id="patch_52">
    <path clip-path="url(#pe6dd08f70f)" d="M 54 1039.51584 
L 83.113043 1039.51584 
L 83.113043 1036.25424 
L 54 1036.25424 
z
" style="fill:#ffffff;stroke:#000000;stroke-linejoin:miter;"/>
   </g>
   <g id="patch_53">
    <path clip-path="url(#pe6dd08f70f)" d="M 54 1036.25424 
L 97.669565 1036.25424 
L 97.669565 1032.99264 
L 54 1032.99264 
z
" style="fill:#e73c49;stroke:#000000;stroke-linejoin:miter;"/>
   </g>
   <g id="patch_54">
    <path clip-path="url(#pe6dd08f70f)" d="M 54 1032.99264 
L 83.113043 1032.99264 
L 83.113043 1000.37664 
L 54 1000.37664 
z
" style="fill:#ffffff;stroke:#000000;stroke-linejoin:miter;"/>
   </g>
   <g id="patch_55">
    <path clip-path="url(#pe6dd08f70f)" d="M 54 1000.37664 
L 97.669565 1000.37664 
L 97.669565 998.74584 
L 54 998.74584 
z
" style="fill:#e73c49;stroke:#000000;stroke-linejoin:miter;"/>
   </g>
   <g id="patch_56">
    <path clip-path="url(#pe6dd08f70f)" d="M 54 998.74584 
L 97.669565 998.74584 
L 97.669565 988.96104 
L 54 988.96104 
z
" style="fill:#2bb673;stroke:#000000;stroke-linejoin:miter;"/>
   </g>
   <g id="patch_57">
    <path clip-path="url(#pe6dd08f70f)" d="M 54 988.96104 
L 97.669565 988.96104 
L 97.669565 972.65304 
L 54 972.65304 
z
" style="fill:#e73c49;stroke:#000000;stroke-linejoin:miter;"/>
   </g>
   <g id="patch_58">
    <path clip-path="url(#pe6dd08f70f)" d="M 54 972.65304 
L 83.113043 972.65304 
L 83.113043 932.31792 
L 54 932.31792 
z
" style="fill:#ffffff;stroke:#000000;stroke-linejoin:miter;"/>
   </g>
   <g id="patch_59">
    <path clip-path="url(#pe6dd08f70f)" d="M 54 932.31792 
L 97.669565 932.31792 
L 97.669565 925.79472 
L 54 925.79472 
z
" style="fill:#e73c49;stroke:#000000;stroke-linejoin:miter;"/>
   </g>
   <g id="patch_60">
    <path clip-path="url(#pe6dd08f70f)" d="M 54 925.79472 
L 97.669565 925.79472 
L 97.669565 923.72904 
L 54 923.72904 
z
" style="fill:#2bb673;stroke:#000000;stroke-linejoin:miter;"/>
   </g>
   <g id="patch_61">
    <path clip-path="url(#pe6dd08f70f)" d="M 54 923.72904 
L 104.947826 923.72904 
L 104.947826 921.55464 
L 54 921.55464 
z
" style="fill:#5078c8;stroke:#000000;stroke-linejoin:miter;"/>
   </g>
   <g id="patch_62">
    <path clip-path="url(#pe6dd08f70f)" d="M 54 921.55464 
L 83.113043 921.55464 
L 83.113043 919.92384 
L 54 919.92384 
z
" style="fill:#ffffff;stroke:#000000;stroke-linejoin:miter;"/>
   </g>
   <g id="patch_63">
    <path clip-path="url(#pe6dd08f70f)" d="M 54 919.92384 
L 104.947826 919.92384 
L 104.947826 911.76984 
L 54 911.76984 
z
" style="fill:#5078c8;stroke:#000000;stroke-linejoin:miter;"/>
   </g>
   <g id="patch_64">
    <path clip-path="url(#pe6dd08f70f)" d="M 54 911.76984 
L 83.113043 911.76984 
L 83.113043 910.13904 
L 54 910.13904 
z
" style="fill:#ffffff;stroke:#000000;stroke-linejoin:miter;"/>
   </g>
   <g id="patch_65">
    <path clip-path="url(#pe6dd08f70f)" d="M 54 910.13904 
L 97.669565 910.13904 
L 97.669565 901.98504 
L 54 901.98504 
z
" style="fill:#2bb673;stroke:#000000;stroke-linejoin:miter;"/>
   </g>
   <g id="patch_66">
    <path clip-path="url(#pe6dd08f70f)" d="M 54 901.98504 
L 83.113043 901.98504 
L 83.113043 898.72344 
L 54 898.72344 
z
" style="fill:#ffffff;stroke:#000000;stroke-linejoin:miter;"/>
   </g>
   <g id="patch_67">
    <path clip-path="url(#pe6dd08f70f)" d="M 54 898.72344 
L 104.947826 898.72344 
L 104.947826 888.93864 
L 54 888.93864 
z
" style="fill:#5078c8;stroke:#000000;stroke-linejoin:miter;"/>
   </g>
   <g id="patch_68">
    <path clip-path="url(#pe6dd08f70f)" d="M 54 888.93864 
L 83.113043 888.93864 
L 83.113043 882.41544 
L 54 882.41544 
z
" style="fill:#ffffff;stroke:#000000;stroke-linejoin:miter;"/>
   </g>
   <g id="patch_69">
    <path clip-path="url(#pe6dd08f70f)" d="M 54 882.41544 
L 112.226087 882.41544 
L 112.226087 875.34864 
L 54 875.34864 
z
" style="fill:#939598;stroke:#000000;stroke-linejoin:miter;"/>
   </g>
   <g id="patch_70">
    <path clip-path="url(#pe6dd08f70f)" d="M 54 875.34864 
L 83.113043 875.34864 
L 83.113043 867.19464 
L 54 867.19464 
z
" style="fill:#ffffff;stroke:#000000;stroke-linejoin:miter;"/>
   </g>
   <g id="patch_71">
    <path clip-path="url(#pe6dd08f70f)" d="M 54 867.19464 
L 112.226087 867.19464 
L 112.226087 862.30224 
L 54 862.30224 
z
" style="fill:#939598;stroke:#000000;stroke-linejoin:miter;"/>
   </g>
   <g id="patch_72">
    <path clip-path="url(#pe6dd08f70f)" d="M 54 862.30224 
L 83.113043 862.30224 
L 83.113043 852.51744 
L 54 852.51744 
z
" style="fill:#ffffff;stroke:#000000;stroke-linejoin:miter;"/>
   </g>
   <g id="patch_73">
    <path clip-path="url(#pe6dd08f70f)" d="M 54 852.51744 
L 126.782609 852.51744 
L 126.782609 831.96936 
L 54 831.96936 
z
" style="fill:#939598;stroke:#000000;stroke-linejoin:miter;"/>
   </g>
   <g id="patch_74">
    <path clip-path="url(#pe6dd08f70f)" d="M 54 831.96936 
L 83.113043 831.96936 
L 83.113043 748.25496 
L 54 748.25496 
z
" style="fill:#ffffff;stroke:#000000;stroke-linejoin:miter;"/>
   </g>
   <g id="patch_75">
    <path clip-path="url(#pe6dd08f70f)" d="M 54 748.25496 
L 126.782609 748.25496 
L 126.782609 720.53136 
L 54 720.53136 
z
" style="fill:#939598;stroke:#000000;stroke-linejoin:miter;"/>
   </g>
   <g id="patch_76">
    <path clip-path="url(#pe6dd08f70f)" d="M 54 720.53136 
L 83.113043 720.53136 
L 83.113043 707.48496 
L 54 707.48496 
z
" style="fill:#ffffff;stroke:#000000;stroke-linejoin:miter;"/>
   </g>
   <g id="patch_77">
    <path clip-path="url(#pe6dd08f70f)" d="M 54 707.48496 
L 126.782609 707.48496 
L 126.782609 666.71496 
L 54 666.71496 
z
" style="fill:#939598;stroke:#000000;stroke-linejoin:miter;"/>
   </g>
   <g id="patch_78">
    <path clip-path="url(#pe6dd08f70f)" d="M 54 666.71496 
L 83.113043 666.71496 
L 83.113043 646.05816 
L 54 646.05816 
z
" style="fill:#ffffff;stroke:#000000;stroke-linejoin:miter;"/>
   </g>
   <g id="patch_79">
    <path clip-path="url(#pe6dd08f70f)" d="M 54 646.05816 
L 126.782609 646.05816 
L 126.782609 636.27336 
L 54 636.27336 
z
" style="fill:#939598;stroke:#000000;stroke-linejoin:miter;"/>
   </g>
   <g id="patch_80">
    <path clip-path="url(#pe6dd08f70f)" d="M 54 636.27336 
L 83.113043 636.27336 
L 83.113043 575.39016 
L 54 575.39016 
z
" style="fill:#ffffff;stroke:#000000;stroke-linejoin:miter;"/>
   </g>
   <g id="patch_81">
    <path clip-path="url(#pe6dd08f70f)" d="M 54 575.39016 
L 126.782609 575.39016 
L 126.782609 545.7096 
L 54 545.7096 
z
" style="fill:#939598;stroke:#000000;stroke-linejoin:miter;"/>
   </g>
   <g id="patch_82">
    <path clip-path="url(#pe6dd08f70f)" d="M 54 545.7096 
L 126.782609 545.7096 
L 126.782609 540.8172 
L 54 540.8172 
z
" style="fill:#939598;stroke:#000000;stroke-linejoin:miter;"/>
   </g>
   <g id="patch_83">
    <path clip-path="url(#pe6dd08f70f)" d="M 54 540.8172 
L 83.113043 540.8172 
L 83.113043 539.1864 
L 54 539.1864 
z
" style="fill:#ffffff;stroke:#000000;stroke-linejoin:miter;"/>
   </g>
   <g id="patch_84">
    <path clip-path="url(#pe6dd08f70f)" d="M 54 539.1864 
L 199.565217 539.1864 
L 199.565217 428.72688 
L 54 428.72688 
z
" style="fill:#ff00ff;stroke:#000000;stroke-linejoin:miter;"/>
   </g>
   <g id="patch_85">
    <path clip-path="url(#pe6dd08f70f)" d="M 54 428.72688 
L 97.669565 428.72688 
L 97.669565 423.29088 
L 54 423.29088 
z
" style="stroke:#000000;stroke-linejoin:miter;"/>
   </g>
   <g id="matplotlib.axis_1"/>
   <g id="matplotlib.axis_2">
    <g id="ytick_1">
     <g id="line2d_1">
      <defs>
       <path d="M 0 0 
L -3.5 0 
" id="m9b902b934a" style="stroke:#000000;stroke-width:0.8;"/>
      </defs>
      <g>
       <use style="stroke:#000000;stroke-width:0.8;" x="54" xlink:href="#m9b902b934a" y="3086.496"/>
      </g>
     </g>
     <g id="text_1">
      <!-- 0 -->
      <defs>
       <path d="M 31.78125 66.40625 
Q 24.171875 66.40625 20.328125 58.90625 
Q 16.5 51.421875 16.5 36.375 
Q 16.5 21.390625 20.328125 13.890625 
Q 24.171875 6.390625 31.78125 6.390625 
Q 39.453125 6.390625 43.28125 13.890625 
Q 47.125 21.390625 47.125 36.375 
Q 47.125 51.421875 43.28125 58.90625 
Q 39.453125 66.40625 31.78125 66.40625 
z
M 31.78125 74.21875 
Q 44.046875 74.21875 50.515625 64.515625 
Q 56.984375 54.828125 56.984375 36.375 
Q 56.984375 17.96875 50.515625 8.265625 
Q 44.046875 -1.421875 31.78125 -1.421875 
Q 19.53125 -1.421875 13.0625 8.265625 
Q 6.59375 17.96875 6.59375 36.375 
Q 6.59375 54.828125 13.0625 64.515625 
Q 19.53125 74.21875 31.78125 74.21875 
z
" id="DejaVuSans-30"/>
      </defs>
      <g transform="translate(40.6375 3090.295219)scale(0.1 -0.1)">
       <use xlink:href="#DejaVuSans-30"/>
      </g>
     </g>
    </g>
    <g id="ytick_2">
     <g id="line2d_2">
      <g>
       <use style="stroke:#000000;stroke-width:0.8;" x="54" xlink:href="#m9b902b934a" y="2542.896"/>
      </g>
     </g>
     <g id="text_2">
      <!-- 500 -->
      <defs>
       <path d="M 10.796875 72.90625 
L 49.515625 72.90625 
L 49.515625 64.59375 
L 19.828125 64.59375 
L 19.828125 46.734375 
Q 21.96875 47.46875 24.109375 47.828125 
Q 26.265625 48.1875 28.421875 48.1875 
Q 40.625 48.1875 47.75 41.5 
Q 54.890625 34.8125 54.890625 23.390625 
Q 54.890625 11.625 47.5625 5.09375 
Q 40.234375 -1.421875 26.90625 -1.421875 
Q 22.3125 -1.421875 17.546875 -0.640625 
Q 12.796875 0.140625 7.71875 1.703125 
L 7.71875 11.625 
Q 12.109375 9.234375 16.796875 8.0625 
Q 21.484375 6.890625 26.703125 6.890625 
Q 35.15625 6.890625 40.078125 11.328125 
Q 45.015625 15.765625 45.015625 23.390625 
Q 45.015625 31 40.078125 35.4375 
Q 35.15625 39.890625 26.703125 39.890625 
Q 22.75 39.890625 18.8125 39.015625 
Q 14.890625 38.140625 10.796875 36.28125 
z
" id="DejaVuSans-35"/>
      </defs>
      <g transform="translate(27.9125 2546.695219)scale(0.1 -0.1)">
       <use xlink:href="#DejaVuSans-35"/>
       <use x="63.623047" xlink:href="#DejaVuSans-30"/>
       <use x="127.246094" xlink:href="#DejaVuSans-30"/>
      </g>
     </g>
    </g>
    <g id="ytick_3">
     <g id="line2d_3">
      <g>
       <use style="stroke:#000000;stroke-width:0.8;" x="54" xlink:href="#m9b902b934a" y="1999.296"/>
      </g>
     </g>
     <g id="text_3">
      <!-- 1000 -->
      <defs>
       <path d="M 12.40625 8.296875 
L 28.515625 8.296875 
L 28.515625 63.921875 
L 10.984375 60.40625 
L 10.984375 69.390625 
L 28.421875 72.90625 
L 38.28125 72.90625 
L 38.28125 8.296875 
L 54.390625 8.296875 
L 54.390625 0 
L 12.40625 0 
z
" id="DejaVuSans-31"/>
      </defs>
      <g transform="translate(21.55 2003.095219)scale(0.1 -0.1)">
       <use xlink:href="#DejaVuSans-31"/>
       <use x="63.623047" xlink:href="#DejaVuSans-30"/>
       <use x="127.246094" xlink:href="#DejaVuSans-30"/>
       <use x="190.869141" xlink:href="#DejaVuSans-30"/>
      </g>
     </g>
    </g>
    <g id="ytick_4">
     <g id="line2d_4">
      <g>
       <use style="stroke:#000000;stroke-width:0.8;" x="54" xlink:href="#m9b902b934a" y="1455.696"/>
      </g>
     </g>
     <g id="text_4">
      <!-- 1500 -->
      <g transform="translate(21.55 1459.495219)scale(0.1 -0.1)">
       <use xlink:href="#DejaVuSans-31"/>
       <use x="63.623047" xlink:href="#DejaVuSans-35"/>
       <use x="127.246094" xlink:href="#DejaVuSans-30"/>
       <use x="190.869141" xlink:href="#DejaVuSans-30"/>
      </g>
     </g>
    </g>
    <g id="ytick_5">
     <g id="line2d_5">
      <g>
       <use style="stroke:#000000;stroke-width:0.8;" x="54" xlink:href="#m9b902b934a" y="912.096"/>
      </g>
     </g>
     <g id="text_5">
      <!-- 2000 -->
      <defs>
       <path d="M 19.1875 8.296875 
L 53.609375 8.296875 
L 53.609375 0 
L 7.328125 0 
L 7.328125 8.296875 
Q 12.9375 14.109375 22.625 23.890625 
Q 32.328125 33.6875 34.8125 36.53125 
Q 39.546875 41.84375 41.421875 45.53125 
Q 43.3125 49.21875 43.3125 52.78125 
Q 43.3125 58.59375 39.234375 62.25 
Q 35.15625 65.921875 28.609375 65.921875 
Q 23.96875 65.921875 18.8125 64.3125 
Q 13.671875 62.703125 7.8125 59.421875 
L 7.8125 69.390625 
Q 13.765625 71.78125 18.9375 73 
Q 24.125 74.21875 28.421875 74.21875 
Q 39.75 74.21875 46.484375 68.546875 
Q 53.21875 62.890625 53.21875 53.421875 
Q 53.21875 48.921875 51.53125 44.890625 
Q 49.859375 40.875 45.40625 35.40625 
Q 44.1875 33.984375 37.640625 27.21875 
Q 31.109375 20.453125 19.1875 8.296875 
z
" id="DejaVuSans-32"/>
      </defs>
      <g transform="translate(21.55 915.895219)scale(0.1 -0.1)">
       <use xlink:href="#DejaVuSans-32"/>
       <use x="63.623047" xlink:href="#DejaVuSans-30"/>
       <use x="127.246094" xlink:href="#DejaVuSans-30"/>
       <use x="190.869141" xlink:href="#DejaVuSans-30"/>
      </g>
     </g>
    </g>
    <g id="text_6">
     <!-- stratigraphic height [m] -->
     <defs>
      <path d="M 44.28125 53.078125 
L 44.28125 44.578125 
Q 40.484375 46.53125 36.375 47.5 
Q 32.28125 48.484375 27.875 48.484375 
Q 21.1875 48.484375 17.84375 46.4375 
Q 14.5 44.390625 14.5 40.28125 
Q 14.5 37.15625 16.890625 35.375 
Q 19.28125 33.59375 26.515625 31.984375 
L 29.59375 31.296875 
Q 39.15625 29.25 43.1875 25.515625 
Q 47.21875 21.78125 47.21875 15.09375 
Q 47.21875 7.46875 41.1875 3.015625 
Q 35.15625 -1.421875 24.609375 -1.421875 
Q 20.21875 -1.421875 15.453125 -0.5625 
Q 10.6875 0.296875 5.421875 2 
L 5.421875 11.28125 
Q 10.40625 8.6875 15.234375 7.390625 
Q 20.0625 6.109375 24.8125 6.109375 
Q 31.15625 6.109375 34.5625 8.28125 
Q 37.984375 10.453125 37.984375 14.40625 
Q 37.984375 18.0625 35.515625 20.015625 
Q 33.0625 21.96875 24.703125 23.78125 
L 21.578125 24.515625 
Q 13.234375 26.265625 9.515625 29.90625 
Q 5.8125 33.546875 5.8125 39.890625 
Q 5.8125 47.609375 11.28125 51.796875 
Q 16.75 56 26.8125 56 
Q 31.78125 56 36.171875 55.265625 
Q 40.578125 54.546875 44.28125 53.078125 
z
" id="DejaVuSans-73"/>
      <path d="M 18.3125 70.21875 
L 18.3125 54.6875 
L 36.8125 54.6875 
L 36.8125 47.703125 
L 18.3125 47.703125 
L 18.3125 18.015625 
Q 18.3125 11.328125 20.140625 9.421875 
Q 21.96875 7.515625 27.59375 7.515625 
L 36.8125 7.515625 
L 36.8125 0 
L 27.59375 0 
Q 17.1875 0 13.234375 3.875 
Q 9.28125 7.765625 9.28125 18.015625 
L 9.28125 47.703125 
L 2.6875 47.703125 
L 2.6875 54.6875 
L 9.28125 54.6875 
L 9.28125 70.21875 
z
" id="DejaVuSans-74"/>
      <path d="M 41.109375 46.296875 
Q 39.59375 47.171875 37.8125 47.578125 
Q 36.03125 48 33.890625 48 
Q 26.265625 48 22.1875 43.046875 
Q 18.109375 38.09375 18.109375 28.8125 
L 18.109375 0 
L 9.078125 0 
L 9.078125 54.6875 
L 18.109375 54.6875 
L 18.109375 46.1875 
Q 20.953125 51.171875 25.484375 53.578125 
Q 30.03125 56 36.53125 56 
Q 37.453125 56 38.578125 55.875 
Q 39.703125 55.765625 41.0625 55.515625 
z
" id="DejaVuSans-72"/>
      <path d="M 34.28125 27.484375 
Q 23.390625 27.484375 19.1875 25 
Q 14.984375 22.515625 14.984375 16.5 
Q 14.984375 11.71875 18.140625 8.90625 
Q 21.296875 6.109375 26.703125 6.109375 
Q 34.1875 6.109375 38.703125 11.40625 
Q 43.21875 16.703125 43.21875 25.484375 
L 43.21875 27.484375 
z
M 52.203125 31.203125 
L 52.203125 0 
L 43.21875 0 
L 43.21875 8.296875 
Q 40.140625 3.328125 35.546875 0.953125 
Q 30.953125 -1.421875 24.3125 -1.421875 
Q 15.921875 -1.421875 10.953125 3.296875 
Q 6 8.015625 6 15.921875 
Q 6 25.140625 12.171875 29.828125 
Q 18.359375 34.515625 30.609375 34.515625 
L 43.21875 34.515625 
L 43.21875 35.40625 
Q 43.21875 41.609375 39.140625 45 
Q 35.0625 48.390625 27.6875 48.390625 
Q 23 48.390625 18.546875 47.265625 
Q 14.109375 46.140625 10.015625 43.890625 
L 10.015625 52.203125 
Q 14.9375 54.109375 19.578125 55.046875 
Q 24.21875 56 28.609375 56 
Q 40.484375 56 46.34375 49.84375 
Q 52.203125 43.703125 52.203125 31.203125 
z
" id="DejaVuSans-61"/>
      <path d="M 9.421875 54.6875 
L 18.40625 54.6875 
L 18.40625 0 
L 9.421875 0 
z
M 9.421875 75.984375 
L 18.40625 75.984375 
L 18.40625 64.59375 
L 9.421875 64.59375 
z
" id="DejaVuSans-69"/>
      <path d="M 45.40625 27.984375 
Q 45.40625 37.75 41.375 43.109375 
Q 37.359375 48.484375 30.078125 48.484375 
Q 22.859375 48.484375 18.828125 43.109375 
Q 14.796875 37.75 14.796875 27.984375 
Q 14.796875 18.265625 18.828125 12.890625 
Q 22.859375 7.515625 30.078125 7.515625 
Q 37.359375 7.515625 41.375 12.890625 
Q 45.40625 18.265625 45.40625 27.984375 
z
M 54.390625 6.78125 
Q 54.390625 -7.171875 48.1875 -13.984375 
Q 42 -20.796875 29.203125 -20.796875 
Q 24.46875 -20.796875 20.265625 -20.09375 
Q 16.0625 -19.390625 12.109375 -17.921875 
L 12.109375 -9.1875 
Q 16.0625 -11.328125 19.921875 -12.34375 
Q 23.78125 -13.375 27.78125 -13.375 
Q 36.625 -13.375 41.015625 -8.765625 
Q 45.40625 -4.15625 45.40625 5.171875 
L 45.40625 9.625 
Q 42.625 4.78125 38.28125 2.390625 
Q 33.9375 0 27.875 0 
Q 17.828125 0 11.671875 7.65625 
Q 5.515625 15.328125 5.515625 27.984375 
Q 5.515625 40.671875 11.671875 48.328125 
Q 17.828125 56 27.875 56 
Q 33.9375 56 38.28125 53.609375 
Q 42.625 51.21875 45.40625 46.390625 
L 45.40625 54.6875 
L 54.390625 54.6875 
z
" id="DejaVuSans-67"/>
      <path d="M 18.109375 8.203125 
L 18.109375 -20.796875 
L 9.078125 -20.796875 
L 9.078125 54.6875 
L 18.109375 54.6875 
L 18.109375 46.390625 
Q 20.953125 51.265625 25.265625 53.625 
Q 29.59375 56 35.59375 56 
Q 45.5625 56 51.78125 48.09375 
Q 58.015625 40.1875 58.015625 27.296875 
Q 58.015625 14.40625 51.78125 6.484375 
Q 45.5625 -1.421875 35.59375 -1.421875 
Q 29.59375 -1.421875 25.265625 0.953125 
Q 20.953125 3.328125 18.109375 8.203125 
z
M 48.6875 27.296875 
Q 48.6875 37.203125 44.609375 42.84375 
Q 40.53125 48.484375 33.40625 48.484375 
Q 26.265625 48.484375 22.1875 42.84375 
Q 18.109375 37.203125 18.109375 27.296875 
Q 18.109375 17.390625 22.1875 11.75 
Q 26.265625 6.109375 33.40625 6.109375 
Q 40.53125 6.109375 44.609375 11.75 
Q 48.6875 17.390625 48.6875 27.296875 
z
" id="DejaVuSans-70"/>
      <path d="M 54.890625 33.015625 
L 54.890625 0 
L 45.90625 0 
L 45.90625 32.71875 
Q 45.90625 40.484375 42.875 44.328125 
Q 39.84375 48.1875 33.796875 48.1875 
Q 26.515625 48.1875 22.3125 43.546875 
Q 18.109375 38.921875 18.109375 30.90625 
L 18.109375 0 
L 9.078125 0 
L 9.078125 75.984375 
L 18.109375 75.984375 
L 18.109375 46.1875 
Q 21.34375 51.125 25.703125 53.5625 
Q 30.078125 56 35.796875 56 
Q 45.21875 56 50.046875 50.171875 
Q 54.890625 44.34375 54.890625 33.015625 
z
" id="DejaVuSans-68"/>
      <path d="M 48.78125 52.59375 
L 48.78125 44.1875 
Q 44.96875 46.296875 41.140625 47.34375 
Q 37.3125 48.390625 33.40625 48.390625 
Q 24.65625 48.390625 19.8125 42.84375 
Q 14.984375 37.3125 14.984375 27.296875 
Q 14.984375 17.28125 19.8125 11.734375 
Q 24.65625 6.203125 33.40625 6.203125 
Q 37.3125 6.203125 41.140625 7.25 
Q 44.96875 8.296875 48.78125 10.40625 
L 48.78125 2.09375 
Q 45.015625 0.34375 40.984375 -0.53125 
Q 36.96875 -1.421875 32.421875 -1.421875 
Q 20.0625 -1.421875 12.78125 6.34375 
Q 5.515625 14.109375 5.515625 27.296875 
Q 5.515625 40.671875 12.859375 48.328125 
Q 20.21875 56 33.015625 56 
Q 37.15625 56 41.109375 55.140625 
Q 45.0625 54.296875 48.78125 52.59375 
z
" id="DejaVuSans-63"/>
      <path id="DejaVuSans-20"/>
      <path d="M 56.203125 29.59375 
L 56.203125 25.203125 
L 14.890625 25.203125 
Q 15.484375 15.921875 20.484375 11.0625 
Q 25.484375 6.203125 34.421875 6.203125 
Q 39.59375 6.203125 44.453125 7.46875 
Q 49.3125 8.734375 54.109375 11.28125 
L 54.109375 2.78125 
Q 49.265625 0.734375 44.1875 -0.34375 
Q 39.109375 -1.421875 33.890625 -1.421875 
Q 20.796875 -1.421875 13.15625 6.1875 
Q 5.515625 13.8125 5.515625 26.8125 
Q 5.515625 40.234375 12.765625 48.109375 
Q 20.015625 56 32.328125 56 
Q 43.359375 56 49.78125 48.890625 
Q 56.203125 41.796875 56.203125 29.59375 
z
M 47.21875 32.234375 
Q 47.125 39.59375 43.09375 43.984375 
Q 39.0625 48.390625 32.421875 48.390625 
Q 24.90625 48.390625 20.390625 44.140625 
Q 15.875 39.890625 15.1875 32.171875 
z
" id="DejaVuSans-65"/>
      <path d="M 8.59375 75.984375 
L 29.296875 75.984375 
L 29.296875 69 
L 17.578125 69 
L 17.578125 -6.203125 
L 29.296875 -6.203125 
L 29.296875 -13.1875 
L 8.59375 -13.1875 
z
" id="DejaVuSans-5b"/>
      <path d="M 52 44.1875 
Q 55.375 50.25 60.0625 53.125 
Q 64.75 56 71.09375 56 
Q 79.640625 56 84.28125 50.015625 
Q 88.921875 44.046875 88.921875 33.015625 
L 88.921875 0 
L 79.890625 0 
L 79.890625 32.71875 
Q 79.890625 40.578125 77.09375 44.375 
Q 74.3125 48.1875 68.609375 48.1875 
Q 61.625 48.1875 57.5625 43.546875 
Q 53.515625 38.921875 53.515625 30.90625 
L 53.515625 0 
L 44.484375 0 
L 44.484375 32.71875 
Q 44.484375 40.625 41.703125 44.40625 
Q 38.921875 48.1875 33.109375 48.1875 
Q 26.21875 48.1875 22.15625 43.53125 
Q 18.109375 38.875 18.109375 30.90625 
L 18.109375 0 
L 9.078125 0 
L 9.078125 54.6875 
L 18.109375 54.6875 
L 18.109375 46.1875 
Q 21.1875 51.21875 25.484375 53.609375 
Q 29.78125 56 35.6875 56 
Q 41.65625 56 45.828125 52.96875 
Q 50 49.953125 52 44.1875 
z
" id="DejaVuSans-6d"/>
      <path d="M 30.421875 75.984375 
L 30.421875 -13.1875 
L 9.71875 -13.1875 
L 9.71875 -6.203125 
L 21.390625 -6.203125 
L 21.390625 69 
L 9.71875 69 
L 9.71875 75.984375 
z
" id="DejaVuSans-5d"/>
     </defs>
     <g transform="translate(15.470312 1814.589534)rotate(-90)scale(0.1 -0.1)">
      <use xlink:href="#DejaVuSans-73"/>
      <use x="52.099609" xlink:href="#DejaVuSans-74"/>
      <use x="91.308594" xlink:href="#DejaVuSans-72"/>
      <use x="132.421875" xlink:href="#DejaVuSans-61"/>
      <use x="193.701172" xlink:href="#DejaVuSans-74"/>
      <use x="232.910156" xlink:href="#DejaVuSans-69"/>
      <use x="260.693359" xlink:href="#DejaVuSans-67"/>
      <use x="324.169922" xlink:href="#DejaVuSans-72"/>
      <use x="365.283203" xlink:href="#DejaVuSans-61"/>
      <use x="426.5625" xlink:href="#DejaVuSans-70"/>
      <use x="490.039062" xlink:href="#DejaVuSans-68"/>
      <use x="553.417969" xlink:href="#DejaVuSans-69"/>
      <use x="581.201172" xlink:href="#DejaVuSans-63"/>
      <use x="636.181641" xlink:href="#DejaVuSans-20"/>
      <use x="667.96875" xlink:href="#DejaVuSans-68"/>
      <use x="731.347656" xlink:href="#DejaVuSans-65"/>
      <use x="792.871094" xlink:href="#DejaVuSans-69"/>
      <use x="820.654297" xlink:href="#DejaVuSans-67"/>
      <use x="884.130859" xlink:href="#DejaVuSans-68"/>
      <use x="947.509766" xlink:href="#DejaVuSans-74"/>
      <use x="986.71875" xlink:href="#DejaVuSans-20"/>
      <use x="1018.505859" xlink:href="#DejaVuSans-5b"/>
      <use x="1057.519531" xlink:href="#DejaVuSans-6d"/>
      <use x="1154.931641" xlink:href="#DejaVuSans-5d"/>
     </g>
    </g>
   </g>
   <g id="patch_86">
    <path d="M 54 3086.496 
L 54 423.29088 
" style="fill:none;stroke:#000000;stroke-linecap:square;stroke-linejoin:miter;stroke-width:0.8;"/>
   </g>
   <g id="patch_87">
    <path d="M 199.565217 3086.496 
L 199.565217 423.29088 
" style="fill:none;stroke:#000000;stroke-linecap:square;stroke-linejoin:miter;stroke-width:0.8;"/>
   </g>
   <g id="patch_88">
    <path d="M 54 3086.496 
L 199.565217 3086.496 
" style="fill:none;stroke:#000000;stroke-linecap:square;stroke-linejoin:miter;stroke-width:0.8;"/>
   </g>
   <g id="patch_89">
    <path d="M 54 423.29088 
L 199.565217 423.29088 
" style="fill:none;stroke:#000000;stroke-linecap:square;stroke-linejoin:miter;stroke-width:0.8;"/>
   </g>
  </g>
  <g id="axes_2">
   <g id="patch_90">
    <path d="M 214.121739 3086.496 
L 262.643478 3086.496 
L 262.643478 423.29088 
L 214.121739 423.29088 
z
" style="fill:#ffffff;"/>
   </g>
   <g id="PathCollection_1">
    <defs>
     <path d="M 0 -3.535534 
L -3.535534 3.535534 
L 3.535534 3.535534 
z
" id="m1e1cfab8f1" style="stroke:#000000;stroke-width:0.5;"/>
    </defs>
    <g clip-path="url(#pfa9583f53e)">
     <use style="fill:#b22222;stroke:#000000;stroke-width:0.5;" x="238.382609" xlink:href="#m1e1cfab8f1" y="1287.28872"/>
    </g>
   </g>
   <g id="matplotlib.axis_3"/>
   <g id="matplotlib.axis_4">
    <g id="ytick_6">
     <g id="line2d_6">
      <g>
       <use style="stroke:#000000;stroke-width:0.8;" x="214.121739" xlink:href="#m9b902b934a" y="3086.496"/>
      </g>
     </g>
    </g>
    <g id="ytick_7">
     <g id="line2d_7">
      <g>
       <use style="stroke:#000000;stroke-width:0.8;" x="214.121739" xlink:href="#m9b902b934a" y="2542.896"/>
      </g>
     </g>
    </g>
    <g id="ytick_8">
     <g id="line2d_8">
      <g>
       <use style="stroke:#000000;stroke-width:0.8;" x="214.121739" xlink:href="#m9b902b934a" y="1999.296"/>
      </g>
     </g>
    </g>
    <g id="ytick_9">
     <g id="line2d_9">
      <g>
       <use style="stroke:#000000;stroke-width:0.8;" x="214.121739" xlink:href="#m9b902b934a" y="1455.696"/>
      </g>
     </g>
    </g>
    <g id="ytick_10">
     <g id="line2d_10">
      <g>
       <use style="stroke:#000000;stroke-width:0.8;" x="214.121739" xlink:href="#m9b902b934a" y="912.096"/>
      </g>
     </g>
    </g>
   </g>
   <g id="patch_91">
    <path d="M 214.121739 3086.496 
L 214.121739 423.29088 
" style="fill:none;stroke:#000000;stroke-linecap:square;stroke-linejoin:miter;stroke-width:0.8;"/>
   </g>
   <g id="patch_92">
    <path d="M 262.643478 3086.496 
L 262.643478 423.29088 
" style="fill:none;stroke:#000000;stroke-linecap:square;stroke-linejoin:miter;stroke-width:0.8;"/>
   </g>
   <g id="patch_93">
    <path d="M 214.121739 3086.496 
L 262.643478 3086.496 
" style="fill:none;stroke:#000000;stroke-linecap:square;stroke-linejoin:miter;stroke-width:0.8;"/>
   </g>
   <g id="patch_94">
    <path d="M 214.121739 423.29088 
L 262.643478 423.29088 
" style="fill:none;stroke:#000000;stroke-linecap:square;stroke-linejoin:miter;stroke-width:0.8;"/>
   </g>
   <g id="text_7">
    <!-- ashes -->
    <g transform="translate(220.960109 417.29088)scale(0.12 -0.12)">
     <use xlink:href="#DejaVuSans-61"/>
     <use x="61.279297" xlink:href="#DejaVuSans-73"/>
     <use x="113.378906" xlink:href="#DejaVuSans-68"/>
     <use x="176.757812" xlink:href="#DejaVuSans-65"/>
     <use x="238.28125" xlink:href="#DejaVuSans-73"/>
    </g>
   </g>
  </g>
  <g id="axes_3">
   <g id="patch_95">
    <path d="M 277.2 3086.496 
L 325.721739 3086.496 
L 325.721739 423.29088 
L 277.2 423.29088 
z
" style="fill:#ffffff;"/>
   </g>
   <g id="PathCollection_2">
    <defs>
     <path d="M -0 3.535534 
L 3.535534 -3.535534 
L -3.535534 -3.535534 
z
" id="mc24810e5ea" style="stroke:#000000;stroke-width:0.5;"/>
    </defs>
    <g clip-path="url(#pbb63f448cc)">
     <use style="fill:#dc143c;stroke:#000000;stroke-width:0.5;" x="301.46087" xlink:href="#mc24810e5ea" y="1334.90808"/>
    </g>
   </g>
   <g id="matplotlib.axis_5"/>
   <g id="matplotlib.axis_6">
    <g id="ytick_11">
     <g id="line2d_11">
      <g>
       <use style="stroke:#000000;stroke-width:0.8;" x="277.2" xlink:href="#m9b902b934a" y="3086.496"/>
      </g>
     </g>
    </g>
    <g id="ytick_12">
     <g id="line2d_12">
      <g>
       <use style="stroke:#000000;stroke-width:0.8;" x="277.2" xlink:href="#m9b902b934a" y="2542.896"/>
      </g>
     </g>
    </g>
    <g id="ytick_13">
     <g id="line2d_13">
      <g>
       <use style="stroke:#000000;stroke-width:0.8;" x="277.2" xlink:href="#m9b902b934a" y="1999.296"/>
      </g>
     </g>
    </g>
    <g id="ytick_14">
     <g id="line2d_14">
      <g>
       <use style="stroke:#000000;stroke-width:0.8;" x="277.2" xlink:href="#m9b902b934a" y="1455.696"/>
      </g>
     </g>
    </g>
    <g id="ytick_15">
     <g id="line2d_15">
      <g>
       <use style="stroke:#000000;stroke-width:0.8;" x="277.2" xlink:href="#m9b902b934a" y="912.096"/>
      </g>
     </g>
    </g>
   </g>
   <g id="patch_96">
    <path d="M 277.2 3086.496 
L 277.2 423.29088 
" style="fill:none;stroke:#000000;stroke-linecap:square;stroke-linejoin:miter;stroke-width:0.8;"/>
   </g>
   <g id="patch_97">
    <path d="M 325.721739 3086.496 
L 325.721739 423.29088 
" style="fill:none;stroke:#000000;stroke-linecap:square;stroke-linejoin:miter;stroke-width:0.8;"/>
   </g>
   <g id="patch_98">
    <path d="M 277.2 3086.496 
L 325.721739 3086.496 
" style="fill:none;stroke:#000000;stroke-linecap:square;stroke-linejoin:miter;stroke-width:0.8;"/>
   </g>
   <g id="patch_99">
    <path d="M 277.2 423.29088 
L 325.721739 423.29088 
" style="fill:none;stroke:#000000;stroke-linecap:square;stroke-linejoin:miter;stroke-width:0.8;"/>
   </g>
   <g id="text_8">
    <!-- detritals -->
    <defs>
     <path d="M 45.40625 46.390625 
L 45.40625 75.984375 
L 54.390625 75.984375 
L 54.390625 0 
L 45.40625 0 
L 45.40625 8.203125 
Q 42.578125 3.328125 38.25 0.953125 
Q 33.9375 -1.421875 27.875 -1.421875 
Q 17.96875 -1.421875 11.734375 6.484375 
Q 5.515625 14.40625 5.515625 27.296875 
Q 5.515625 40.1875 11.734375 48.09375 
Q 17.96875 56 27.875 56 
Q 33.9375 56 38.25 53.625 
Q 42.578125 51.265625 45.40625 46.390625 
z
M 14.796875 27.296875 
Q 14.796875 17.390625 18.875 11.75 
Q 22.953125 6.109375 30.078125 6.109375 
Q 37.203125 6.109375 41.296875 11.75 
Q 45.40625 17.390625 45.40625 27.296875 
Q 45.40625 37.203125 41.296875 42.84375 
Q 37.203125 48.484375 30.078125 48.484375 
Q 22.953125 48.484375 18.875 42.84375 
Q 14.796875 37.203125 14.796875 27.296875 
z
" id="DejaVuSans-64"/>
     <path d="M 9.421875 75.984375 
L 18.40625 75.984375 
L 18.40625 0 
L 9.421875 0 
z
" id="DejaVuSans-6c"/>
    </defs>
    <g transform="translate(276.652745 417.29088)scale(0.12 -0.12)">
     <use xlink:href="#DejaVuSans-64"/>
     <use x="63.476562" xlink:href="#DejaVuSans-65"/>
     <use x="125" xlink:href="#DejaVuSans-74"/>
     <use x="164.208984" xlink:href="#DejaVuSans-72"/>
     <use x="205.322266" xlink:href="#DejaVuSans-69"/>
     <use x="233.105469" xlink:href="#DejaVuSans-74"/>
     <use x="272.314453" xlink:href="#DejaVuSans-61"/>
     <use x="333.59375" xlink:href="#DejaVuSans-6c"/>
     <use x="361.376953" xlink:href="#DejaVuSans-73"/>
    </g>
   </g>
  </g>
  <g id="axes_4">
   <g id="patch_100">
    <path d="M 340.278261 3086.496 
L 388.8 3086.496 
L 388.8 423.29088 
L 340.278261 423.29088 
z
" style="fill:#ffffff;"/>
   </g>
   <g id="PathCollection_3">
    <defs>
     <path d="M 0 1.581139 
C 0.419323 1.581139 0.821528 1.41454 1.118034 1.118034 
C 1.41454 0.821528 1.581139 0.419323 1.581139 0 
C 1.581139 -0.419323 1.41454 -0.821528 1.118034 -1.118034 
C 0.821528 -1.41454 0.419323 -1.581139 0 -1.581139 
C -0.419323 -1.581139 -0.821528 -1.41454 -1.118034 -1.118034 
C -1.41454 -0.821528 -1.581139 -0.419323 -1.581139 0 
C -1.581139 0.419323 -1.41454 0.821528 -1.118034 1.118034 
C -0.821528 1.41454 -0.419323 1.581139 0 1.581139 
z
" id="mff8b86d108" style="stroke:#000000;stroke-width:0.1;"/>
    </defs>
    <g clip-path="url(#pf69cc39aef)">
     <use style="fill:#1e90ff;stroke:#000000;stroke-width:0.1;" x="364.53913" xlink:href="#mff8b86d108" y="1339.996176"/>
     <use style="fill:#1e90ff;stroke:#000000;stroke-width:0.1;" x="364.53913" xlink:href="#mff8b86d108" y="1339.865712"/>
     <use style="fill:#1e90ff;stroke:#000000;stroke-width:0.1;" x="364.53913" xlink:href="#mff8b86d108" y="1338.343632"/>
     <use style="fill:#1e90ff;stroke:#000000;stroke-width:0.1;" x="364.53913" xlink:href="#mff8b86d108" y="1337.256432"/>
     <use style="fill:#1e90ff;stroke:#000000;stroke-width:0.1;" x="364.53913" xlink:href="#mff8b86d108" y="1336.277952"/>
     <use style="fill:#1e90ff;stroke:#000000;stroke-width:0.1;" x="364.53913" xlink:href="#mff8b86d108" y="1334.049192"/>
     <use style="fill:#1e90ff;stroke:#000000;stroke-width:0.1;" x="364.53913" xlink:href="#mff8b86d108" y="1334.03832"/>
     <use style="fill:#1e90ff;stroke:#000000;stroke-width:0.1;" x="364.53913" xlink:href="#mff8b86d108" y="1333.907856"/>
     <use style="fill:#1e90ff;stroke:#000000;stroke-width:0.1;" x="364.53913" xlink:href="#mff8b86d108" y="1332.8424"/>
     <use style="fill:#1e90ff;stroke:#000000;stroke-width:0.1;" x="364.53913" xlink:href="#mff8b86d108" y="1331.80956"/>
     <use style="fill:#1e90ff;stroke:#000000;stroke-width:0.1;" x="364.53913" xlink:href="#mff8b86d108" y="1330.494048"/>
     <use style="fill:#1e90ff;stroke:#000000;stroke-width:0.1;" x="364.53913" xlink:href="#mff8b86d108" y="1330.352712"/>
     <use style="fill:#1e90ff;stroke:#000000;stroke-width:0.1;" x="364.53913" xlink:href="#mff8b86d108" y="1325.916936"/>
     <use style="fill:#1e90ff;stroke:#000000;stroke-width:0.1;" x="364.53913" xlink:href="#mff8b86d108" y="1324.63404"/>
     <use style="fill:#1e90ff;stroke:#000000;stroke-width:0.1;" x="364.53913" xlink:href="#mff8b86d108" y="1322.40528"/>
     <use style="fill:#1e90ff;stroke:#000000;stroke-width:0.1;" x="364.53913" xlink:href="#mff8b86d108" y="1321.6986"/>
     <use style="fill:#1e90ff;stroke:#000000;stroke-width:0.1;" x="364.53913" xlink:href="#mff8b86d108" y="1316.197368"/>
     <use style="fill:#1e90ff;stroke:#000000;stroke-width:0.1;" x="364.53913" xlink:href="#mff8b86d108" y="1315.642896"/>
     <use style="fill:#1e90ff;stroke:#000000;stroke-width:0.1;" x="364.53913" xlink:href="#mff8b86d108" y="1315.12104"/>
     <use style="fill:#1e90ff;stroke:#000000;stroke-width:0.1;" x="364.53913" xlink:href="#mff8b86d108" y="1314.120816"/>
     <use style="fill:#1e90ff;stroke:#000000;stroke-width:0.1;" x="364.53913" xlink:href="#mff8b86d108" y="1313.077104"/>
     <use style="fill:#1e90ff;stroke:#000000;stroke-width:0.1;" x="364.53913" xlink:href="#mff8b86d108" y="1311.065784"/>
     <use style="fill:#1e90ff;stroke:#000000;stroke-width:0.1;" x="364.53913" xlink:href="#mff8b86d108" y="1310.380848"/>
     <use style="fill:#1e90ff;stroke:#000000;stroke-width:0.1;" x="364.53913" xlink:href="#mff8b86d108" y="1310.217768"/>
     <use style="fill:#1e90ff;stroke:#000000;stroke-width:0.1;" x="364.53913" xlink:href="#mff8b86d108" y="1310.11992"/>
     <use style="fill:#1e90ff;stroke:#000000;stroke-width:0.1;" x="364.53913" xlink:href="#mff8b86d108" y="1310.076432"/>
     <use style="fill:#1e90ff;stroke:#000000;stroke-width:0.1;" x="364.53913" xlink:href="#mff8b86d108" y="1290.00672"/>
     <use style="fill:#1e90ff;stroke:#000000;stroke-width:0.1;" x="364.53913" xlink:href="#mff8b86d108" y="1287.027792"/>
     <use style="fill:#1e90ff;stroke:#000000;stroke-width:0.1;" x="364.53913" xlink:href="#mff8b86d108" y="1286.321112"/>
     <use style="fill:#1e90ff;stroke:#000000;stroke-width:0.1;" x="364.53913" xlink:href="#mff8b86d108" y="1286.190648"/>
     <use style="fill:#1e90ff;stroke:#000000;stroke-width:0.1;" x="364.53913" xlink:href="#mff8b86d108" y="1285.755768"/>
     <use style="fill:#1e90ff;stroke:#000000;stroke-width:0.1;" x="364.53913" xlink:href="#mff8b86d108" y="1285.38612"/>
     <use style="fill:#1e90ff;stroke:#000000;stroke-width:0.1;" x="364.53913" xlink:href="#mff8b86d108" y="1285.353504"/>
     <use style="fill:#1e90ff;stroke:#000000;stroke-width:0.1;" x="364.53913" xlink:href="#mff8b86d108" y="1285.320888"/>
     <use style="fill:#1e90ff;stroke:#000000;stroke-width:0.1;" x="364.53913" xlink:href="#mff8b86d108" y="1284.809904"/>
     <use style="fill:#1e90ff;stroke:#000000;stroke-width:0.1;" x="364.53913" xlink:href="#mff8b86d108" y="1284.799032"/>
     <use style="fill:#1e90ff;stroke:#000000;stroke-width:0.1;" x="364.53913" xlink:href="#mff8b86d108" y="1194.87672"/>
     <use style="fill:#1e90ff;stroke:#000000;stroke-width:0.1;" x="364.53913" xlink:href="#mff8b86d108" y="1194.626664"/>
     <use style="fill:#1e90ff;stroke:#000000;stroke-width:0.1;" x="364.53913" xlink:href="#mff8b86d108" y="1194.409224"/>
     <use style="fill:#1e90ff;stroke:#000000;stroke-width:0.1;" x="364.53913" xlink:href="#mff8b86d108" y="1194.2244"/>
     <use style="fill:#1e90ff;stroke:#000000;stroke-width:0.1;" x="364.53913" xlink:href="#mff8b86d108" y="1194.180912"/>
     <use style="fill:#1e90ff;stroke:#000000;stroke-width:0.1;" x="364.53913" xlink:href="#mff8b86d108" y="1193.854752"/>
     <use style="fill:#1e90ff;stroke:#000000;stroke-width:0.1;" x="364.53913" xlink:href="#mff8b86d108" y="1193.550336"/>
     <use style="fill:#1e90ff;stroke:#000000;stroke-width:0.1;" x="364.53913" xlink:href="#mff8b86d108" y="1193.071968"/>
     <use style="fill:#1e90ff;stroke:#000000;stroke-width:0.1;" x="364.53913" xlink:href="#mff8b86d108" y="1192.898016"/>
     <use style="fill:#1e90ff;stroke:#000000;stroke-width:0.1;" x="364.53913" xlink:href="#mff8b86d108" y="1192.821912"/>
     <use style="fill:#1e90ff;stroke:#000000;stroke-width:0.1;" x="364.53913" xlink:href="#mff8b86d108" y="1192.637088"/>
     <use style="fill:#1e90ff;stroke:#000000;stroke-width:0.1;" x="364.53913" xlink:href="#mff8b86d108" y="1192.408776"/>
     <use style="fill:#1e90ff;stroke:#000000;stroke-width:0.1;" x="364.53913" xlink:href="#mff8b86d108" y="1188.821016"/>
     <use style="fill:#1e90ff;stroke:#000000;stroke-width:0.1;" x="364.53913" xlink:href="#mff8b86d108" y="1188.712296"/>
     <use style="fill:#1e90ff;stroke:#000000;stroke-width:0.1;" x="364.53913" xlink:href="#mff8b86d108" y="1188.560088"/>
     <use style="fill:#1e90ff;stroke:#000000;stroke-width:0.1;" x="364.53913" xlink:href="#mff8b86d108" y="1188.418752"/>
     <use style="fill:#1e90ff;stroke:#000000;stroke-width:0.1;" x="364.53913" xlink:href="#mff8b86d108" y="1188.288288"/>
     <use style="fill:#1e90ff;stroke:#000000;stroke-width:0.1;" x="364.53913" xlink:href="#mff8b86d108" y="1188.212184"/>
     <use style="fill:#1e90ff;stroke:#000000;stroke-width:0.1;" x="364.53913" xlink:href="#mff8b86d108" y="1188.103464"/>
     <use style="fill:#1e90ff;stroke:#000000;stroke-width:0.1;" x="364.53913" xlink:href="#mff8b86d108" y="1188.038232"/>
     <use style="fill:#1e90ff;stroke:#000000;stroke-width:0.1;" x="364.53913" xlink:href="#mff8b86d108" y="1187.896896"/>
     <use style="fill:#1e90ff;stroke:#000000;stroke-width:0.1;" x="364.53913" xlink:href="#mff8b86d108" y="1187.886024"/>
     <use style="fill:#1e90ff;stroke:#000000;stroke-width:0.1;" x="364.53913" xlink:href="#mff8b86d108" y="1183.047984"/>
     <use style="fill:#1e90ff;stroke:#000000;stroke-width:0.1;" x="364.53913" xlink:href="#mff8b86d108" y="1182.689208"/>
     <use style="fill:#1e90ff;stroke:#000000;stroke-width:0.1;" x="364.53913" xlink:href="#mff8b86d108" y="1182.526128"/>
     <use style="fill:#1e90ff;stroke:#000000;stroke-width:0.1;" x="364.53913" xlink:href="#mff8b86d108" y="1182.2652"/>
     <use style="fill:#1e90ff;stroke:#000000;stroke-width:0.1;" x="364.53913" xlink:href="#mff8b86d108" y="1181.971656"/>
     <use style="fill:#1e90ff;stroke:#000000;stroke-width:0.1;" x="364.53913" xlink:href="#mff8b86d108" y="1181.819448"/>
     <use style="fill:#1e90ff;stroke:#000000;stroke-width:0.1;" x="364.53913" xlink:href="#mff8b86d108" y="1181.765088"/>
     <use style="fill:#1e90ff;stroke:#000000;stroke-width:0.1;" x="364.53913" xlink:href="#mff8b86d108" y="1181.656368"/>
     <use style="fill:#1e90ff;stroke:#000000;stroke-width:0.1;" x="364.53913" xlink:href="#mff8b86d108" y="1838.82528"/>
     <use style="fill:#1e90ff;stroke:#000000;stroke-width:0.1;" x="364.53913" xlink:href="#mff8b86d108" y="1838.49912"/>
     <use style="fill:#1e90ff;stroke:#000000;stroke-width:0.1;" x="364.53913" xlink:href="#mff8b86d108" y="1838.357784"/>
     <use style="fill:#1e90ff;stroke:#000000;stroke-width:0.1;" x="364.53913" xlink:href="#mff8b86d108" y="1838.259936"/>
     <use style="fill:#1e90ff;stroke:#000000;stroke-width:0.1;" x="364.53913" xlink:href="#mff8b86d108" y="1838.194704"/>
     <use style="fill:#1e90ff;stroke:#000000;stroke-width:0.1;" x="364.53913" xlink:href="#mff8b86d108" y="1837.8468"/>
     <use style="fill:#1e90ff;stroke:#000000;stroke-width:0.1;" x="364.53913" xlink:href="#mff8b86d108" y="1837.640232"/>
     <use style="fill:#1e90ff;stroke:#000000;stroke-width:0.1;" x="364.53913" xlink:href="#mff8b86d108" y="1837.542384"/>
     <use style="fill:#1e90ff;stroke:#000000;stroke-width:0.1;" x="364.53913" xlink:href="#mff8b86d108" y="1837.41192"/>
     <use style="fill:#1e90ff;stroke:#000000;stroke-width:0.1;" x="364.53913" xlink:href="#mff8b86d108" y="1837.237968"/>
     <use style="fill:#1e90ff;stroke:#000000;stroke-width:0.1;" x="364.53913" xlink:href="#mff8b86d108" y="1836.281232"/>
     <use style="fill:#1e90ff;stroke:#000000;stroke-width:0.1;" x="364.53913" xlink:href="#mff8b86d108" y="1836.150768"/>
     <use style="fill:#1e90ff;stroke:#000000;stroke-width:0.1;" x="364.53913" xlink:href="#mff8b86d108" y="1835.955072"/>
     <use style="fill:#1e90ff;stroke:#000000;stroke-width:0.1;" x="364.53913" xlink:href="#mff8b86d108" y="1835.824608"/>
     <use style="fill:#1e90ff;stroke:#000000;stroke-width:0.1;" x="364.53913" xlink:href="#mff8b86d108" y="1835.281008"/>
     <use style="fill:#1e90ff;stroke:#000000;stroke-width:0.1;" x="364.53913" xlink:href="#mff8b86d108" y="1835.161416"/>
     <use style="fill:#1e90ff;stroke:#000000;stroke-width:0.1;" x="364.53913" xlink:href="#mff8b86d108" y="1835.07444"/>
     <use style="fill:#1e90ff;stroke:#000000;stroke-width:0.1;" x="364.53913" xlink:href="#mff8b86d108" y="1834.976592"/>
     <use style="fill:#1e90ff;stroke:#000000;stroke-width:0.1;" x="364.53913" xlink:href="#mff8b86d108" y="1833.998112"/>
     <use style="fill:#1e90ff;stroke:#000000;stroke-width:0.1;" x="364.53913" xlink:href="#mff8b86d108" y="1833.867648"/>
     <use style="fill:#1e90ff;stroke:#000000;stroke-width:0.1;" x="364.53913" xlink:href="#mff8b86d108" y="1833.748056"/>
     <use style="fill:#1e90ff;stroke:#000000;stroke-width:0.1;" x="364.53913" xlink:href="#mff8b86d108" y="1829.80152"/>
     <use style="fill:#1e90ff;stroke:#000000;stroke-width:0.1;" x="364.53913" xlink:href="#mff8b86d108" y="1829.671056"/>
     <use style="fill:#1e90ff;stroke:#000000;stroke-width:0.1;" x="364.53913" xlink:href="#mff8b86d108" y="1829.562336"/>
     <use style="fill:#1e90ff;stroke:#000000;stroke-width:0.1;" x="364.53913" xlink:href="#mff8b86d108" y="1829.431872"/>
     <use style="fill:#1e90ff;stroke:#000000;stroke-width:0.1;" x="364.53913" xlink:href="#mff8b86d108" y="1829.1492"/>
     <use style="fill:#1e90ff;stroke:#000000;stroke-width:0.1;" x="364.53913" xlink:href="#mff8b86d108" y="1828.8774"/>
     <use style="fill:#1e90ff;stroke:#000000;stroke-width:0.1;" x="364.53913" xlink:href="#mff8b86d108" y="1828.790424"/>
     <use style="fill:#1e90ff;stroke:#000000;stroke-width:0.1;" x="364.53913" xlink:href="#mff8b86d108" y="1828.692576"/>
     <use style="fill:#1e90ff;stroke:#000000;stroke-width:0.1;" x="364.53913" xlink:href="#mff8b86d108" y="1828.594728"/>
     <use style="fill:#1e90ff;stroke:#000000;stroke-width:0.1;" x="364.53913" xlink:href="#mff8b86d108" y="1828.518624"/>
     <use style="fill:#1e90ff;stroke:#000000;stroke-width:0.1;" x="364.53913" xlink:href="#mff8b86d108" y="2011.711824"/>
     <use style="fill:#1e90ff;stroke:#000000;stroke-width:0.1;" x="364.53913" xlink:href="#mff8b86d108" y="2011.548744"/>
     <use style="fill:#1e90ff;stroke:#000000;stroke-width:0.1;" x="364.53913" xlink:href="#mff8b86d108" y="2011.331304"/>
     <use style="fill:#1e90ff;stroke:#000000;stroke-width:0.1;" x="364.53913" xlink:href="#mff8b86d108" y="2011.048632"/>
     <use style="fill:#1e90ff;stroke:#000000;stroke-width:0.1;" x="364.53913" xlink:href="#mff8b86d108" y="2010.961656"/>
     <use style="fill:#1e90ff;stroke:#000000;stroke-width:0.1;" x="364.53913" xlink:href="#mff8b86d108" y="2008.787256"/>
     <use style="fill:#1e90ff;stroke:#000000;stroke-width:0.1;" x="364.53913" xlink:href="#mff8b86d108" y="2008.635048"/>
     <use style="fill:#1e90ff;stroke:#000000;stroke-width:0.1;" x="364.53913" xlink:href="#mff8b86d108" y="2008.548072"/>
     <use style="fill:#1e90ff;stroke:#000000;stroke-width:0.1;" x="364.53913" xlink:href="#mff8b86d108" y="2008.471968"/>
     <use style="fill:#1e90ff;stroke:#000000;stroke-width:0.1;" x="364.53913" xlink:href="#mff8b86d108" y="2008.417608"/>
     <use style="fill:#1e90ff;stroke:#000000;stroke-width:0.1;" x="364.53913" xlink:href="#mff8b86d108" y="2008.243656"/>
    </g>
   </g>
   <g id="matplotlib.axis_7"/>
   <g id="matplotlib.axis_8">
    <g id="ytick_16">
     <g id="line2d_16">
      <g>
       <use style="stroke:#000000;stroke-width:0.8;" x="340.278261" xlink:href="#m9b902b934a" y="3086.496"/>
      </g>
     </g>
    </g>
    <g id="ytick_17">
     <g id="line2d_17">
      <g>
       <use style="stroke:#000000;stroke-width:0.8;" x="340.278261" xlink:href="#m9b902b934a" y="2542.896"/>
      </g>
     </g>
    </g>
    <g id="ytick_18">
     <g id="line2d_18">
      <g>
       <use style="stroke:#000000;stroke-width:0.8;" x="340.278261" xlink:href="#m9b902b934a" y="1999.296"/>
      </g>
     </g>
    </g>
    <g id="ytick_19">
     <g id="line2d_19">
      <g>
       <use style="stroke:#000000;stroke-width:0.8;" x="340.278261" xlink:href="#m9b902b934a" y="1455.696"/>
      </g>
     </g>
    </g>
    <g id="ytick_20">
     <g id="line2d_20">
      <g>
       <use style="stroke:#000000;stroke-width:0.8;" x="340.278261" xlink:href="#m9b902b934a" y="912.096"/>
      </g>
     </g>
    </g>
   </g>
   <g id="patch_101">
    <path d="M 340.278261 3086.496 
L 340.278261 423.29088 
" style="fill:none;stroke:#000000;stroke-linecap:square;stroke-linejoin:miter;stroke-width:0.8;"/>
   </g>
   <g id="patch_102">
    <path d="M 388.8 3086.496 
L 388.8 423.29088 
" style="fill:none;stroke:#000000;stroke-linecap:square;stroke-linejoin:miter;stroke-width:0.8;"/>
   </g>
   <g id="patch_103">
    <path d="M 340.278261 3086.496 
L 388.8 3086.496 
" style="fill:none;stroke:#000000;stroke-linecap:square;stroke-linejoin:miter;stroke-width:0.8;"/>
   </g>
   <g id="patch_104">
    <path d="M 340.278261 423.29088 
L 388.8 423.29088 
" style="fill:none;stroke:#000000;stroke-linecap:square;stroke-linejoin:miter;stroke-width:0.8;"/>
   </g>
   <g id="text_9">
    <!-- cores -->
    <defs>
     <path d="M 30.609375 48.390625 
Q 23.390625 48.390625 19.1875 42.75 
Q 14.984375 37.109375 14.984375 27.296875 
Q 14.984375 17.484375 19.15625 11.84375 
Q 23.34375 6.203125 30.609375 6.203125 
Q 37.796875 6.203125 41.984375 11.859375 
Q 46.1875 17.53125 46.1875 27.296875 
Q 46.1875 37.015625 41.984375 42.703125 
Q 37.796875 48.390625 30.609375 48.390625 
z
M 30.609375 56 
Q 42.328125 56 49.015625 48.375 
Q 55.71875 40.765625 55.71875 27.296875 
Q 55.71875 13.875 49.015625 6.21875 
Q 42.328125 -1.421875 30.609375 -1.421875 
Q 18.84375 -1.421875 12.171875 6.21875 
Q 5.515625 13.875 5.515625 27.296875 
Q 5.515625 40.765625 12.171875 48.375 
Q 18.84375 56 30.609375 56 
z
" id="DejaVuSans-6f"/>
    </defs>
    <g transform="translate(348.28663 417.29088)scale(0.12 -0.12)">
     <use xlink:href="#DejaVuSans-63"/>
     <use x="54.980469" xlink:href="#DejaVuSans-6f"/>
     <use x="116.162109" xlink:href="#DejaVuSans-72"/>
     <use x="157.244141" xlink:href="#DejaVuSans-65"/>
     <use x="218.767578" xlink:href="#DejaVuSans-73"/>
    </g>
   </g>
  </g>
 </g>
 <defs>
  <clipPath id="pe6dd08f70f">
   <rect height="2663.20512" width="145.565217" x="54" y="423.29088"/>
  </clipPath>
  <clipPath id="pfa9583f53e">
   <rect height="2663.20512" width="48.521739" x="214.121739" y="423.29088"/>
  </clipPath>
  <clipPath id="pbb63f448cc">
   <rect height="2663.20512" width="48.521739" x="277.2" y="423.29088"/>
  </clipPath>
  <clipPath id="pf69cc39aef">
   <rect height="2663.20512" width="48.521739" x="340.278261" y="423.29088"/>
  </clipPath>
 </defs>
</svg>
